<svg width="1852" height="1759" viewBox="0 0 1852 1759" fill="none" xmlns="http://www.w3.org/2000/svg">
<g filter="url(#filter0_d_3_96)">
<path d="M228 447.5C247.611 418.862 356.948 326.272 453.098 267.697L434.75 274C547.833 205.833 803.7 87.9 922.5 161.5L1167 201L981.5 81L1394 220.5L1381 249L1549 371C1600.17 461.167 1705.7 661.7 1684.5 768.5L1767.5 912.5L1702 1048L1638.5 1201L1619 1367L1518.5 1495.5L1250 1670.5H1027.5L997 1646.5H848.5C784.333 1643.5 672.8 1604.7 680 1543.5C687.2 1482.3 635.833 1457.83 630 1480.5C595 1472.5 563 1504.9 549 1480.5L538.5 1528.5L446.5 1495.5L272 1347L228 1174.5L213 1017.5L104 1083L84 849.5L104 757.5L162.5 666L176 526L228 447.5Z" fill="#59191F"/>
<path d="M194.997 424.9C194.943 424.978 194.889 425.057 194.836 425.136C194.774 425.227 194.713 425.319 194.653 425.41L142.653 503.91C139.035 509.372 136.814 515.639 136.185 522.161L123.609 652.571L70.2991 735.954C67.7443 739.95 65.9205 744.368 64.9129 749.003L44.9129 841.003C44.063 844.912 43.8045 848.927 44.1459 852.914L64.1459 1086.41C65.3242 1100.17 73.5128 1112.35 85.8087 1118.62C98.1045 1124.9 112.769 1124.4 124.603 1117.29L179.216 1084.47L188.181 1178.3C188.377 1180.36 188.732 1182.39 189.241 1184.39L233.241 1356.89C235.287 1364.91 239.772 1372.1 246.076 1377.46L420.576 1525.96C424.249 1529.09 428.456 1531.52 432.995 1533.15L524.995 1566.15C535.825 1570.04 547.804 1569.07 557.87 1563.5C567.937 1557.93 575.117 1548.29 577.576 1537.05L579.483 1528.33C584.864 1527.33 589.399 1526.03 592.486 1525.15L592.65 1525.1L593.792 1524.77C611.429 1519.72 616.141 1518.36 621.087 1519.49C627.139 1520.88 633.192 1520.81 638.875 1519.51C640.349 1523.96 641.281 1530.26 640.274 1538.83C636.849 1567.94 648.181 1592.53 663.789 1610.9C678.921 1628.7 699.246 1642.3 719.417 1652.51C759.668 1672.89 809.144 1684.7 846.632 1686.46C847.254 1686.49 847.877 1686.5 848.5 1686.5H983.149L1002.76 1701.93C1009.82 1707.48 1018.53 1710.5 1027.5 1710.5H1250C1257.76 1710.5 1265.34 1708.25 1271.84 1704.01L1540.34 1529.01C1544.03 1526.61 1547.3 1523.61 1550.01 1520.14L1650.51 1391.64C1655.03 1385.86 1657.87 1378.95 1658.73 1371.67L1677.58 1211.19L1738.51 1064.38L1803.51 929.909C1809.27 917.99 1808.77 903.994 1802.16 892.525L1726.11 760.586C1729.34 730.277 1725.54 697.449 1718.54 665.46C1710.19 627.298 1696.54 587.15 1680.99 548.56C1649.88 471.373 1609.69 396.91 1583.79 351.258C1580.97 346.293 1577.12 341.989 1572.5 338.634L1430.94 235.834C1435.09 225.845 1435.02 214.578 1430.71 204.615C1426.22 194.23 1417.53 186.233 1406.81 182.608L994.314 43.1081C975.2 36.6441 954.264 45.4283 945.485 63.596C936.705 81.7636 942.832 103.626 959.774 114.585L985.359 131.137L936.212 123.197C898.607 102.469 854.259 96.6475 810.405 98.4769C763.298 100.442 713.038 111.383 664.641 126.38C567.866 156.369 472.657 204.444 414.1 239.743C408.108 243.355 403.378 248.314 400.094 254.018C360.215 280.399 320.276 310.37 286.586 337.811C265.141 355.277 245.894 371.99 230.546 386.399C216.045 400.013 202.611 413.781 194.997 424.9ZM633.163 1510.39C633.167 1510.38 633.271 1510.44 633.469 1510.6C633.259 1510.48 633.158 1510.4 633.163 1510.39Z" stroke="#59191F" stroke-width="80" stroke-linejoin="round"/>
</g>
<path d="M903.053 1057.08C640.124 985.427 714.426 557.891 784.442 353.08C745.776 333.399 769.708 305.847 1174.76 353.08C1220.39 366.089 1300.69 400.914 1256.79 436.139C1263.59 446.646 1231.71 1146.64 903.053 1057.08C876.405 1160.48 827.706 1371.2 846.099 1386.81C869.089 1406.32 1083.84 1362.79 1129.3 1465.37C1008.43 1496.05 731.042 1532.51 588.5 1432.84C627.863 1391.31 734.49 1323.97 846.099 1386.81C827.706 1371.2 876.405 1160.48 903.053 1057.08Z" fill="white"/>
<path d="M784.442 353.08C714.426 557.891 640.124 985.427 903.053 1057.08M784.442 353.08C818.406 390.106 1250 425.631 1256.79 436.139M784.442 353.08C745.776 333.399 769.708 305.847 1174.76 353.08C1220.39 366.089 1300.69 400.914 1256.79 436.139M903.053 1057.08C1231.71 1146.64 1263.59 446.646 1256.79 436.139M903.053 1057.08C876.405 1160.48 827.706 1371.2 846.099 1386.81M846.099 1386.81C869.089 1406.32 1083.84 1362.79 1129.3 1465.37C1008.43 1496.05 731.042 1532.51 588.5 1432.84C627.863 1391.31 734.49 1323.97 846.099 1386.81Z" stroke="white" stroke-width="80" stroke-linejoin="round"/>
<g filter="url(#filter1_bd_3_96)">
<g filter="url(#filter2_d_3_96)">
<path d="M884.096 1392C969.596 1403.67 1135.4 1435 1114.6 1467C1088.6 1507 595.596 1469 603.596 1430.5C609.996 1399.7 738.263 1380 801.596 1374" stroke="black" stroke-width="30" stroke-linecap="round" stroke-linejoin="round"/>
</g>
<path d="M902.281 1040C881.447 1154.67 841.381 1384 847.781 1384" stroke="black" stroke-width="30" stroke-linecap="round" stroke-linejoin="round"/>
<path d="M790.925 341.241C922.49 338.94 1213.05 352.456 1241.86 411.122C1277.88 484.454 707.053 341.039 790.925 341.241Z" stroke="black" stroke-width="30" stroke-linecap="round" stroke-linejoin="round"/>
<path d="M1235.1 594.5C1161.9 552.1 1025.6 576.833 966.596 594.5C955.596 660.5 1087.1 711 1100.1 717C1110.5 721.8 1189.76 704.667 1228.1 695.5L1235.1 594.5Z" fill="#A40404" stroke="white"/>
<path d="M1229.6 598C1190.6 581.833 1082.7 559.2 963.096 598" stroke="black" stroke-width="30" stroke-linecap="round" stroke-linejoin="round"/>
<path d="M1052.1 699C892.096 491.8 779.43 523 743.096 564.5L732.096 728L756.096 942L870.596 1062.5L1089.6 988C1133.6 884.833 1218 682.6 1203.6 699C1189.2 715.4 1096.6 705.833 1052.1 699Z" fill="#59191F" stroke="white"/>
<g filter="url(#filter3_d_3_96)">
<path d="M781.145 352C723.539 596.103 672.13 1077.42 927.336 1049.87C1246.35 1015.42 1246.35 461.322 1242.33 446.846" stroke="black" stroke-width="50" stroke-linecap="round" stroke-linejoin="round"/>
</g>
<path d="M769.096 557.5C781.096 557.5 850.096 467 999.596 646.5C1149.1 826 1266.1 590 1209.6 709" stroke="black" stroke-width="30" stroke-linecap="round" stroke-linejoin="round"/>
</g>
<defs>
<filter id="filter0_d_3_96" x="0" y="0.986755" width="1851.5" height="1757.51" filterUnits="userSpaceOnUse" color-interpolation-filters="sRGB">
<feFlood flood-opacity="0" result="BackgroundImageFix"/>
<feColorMatrix in="SourceAlpha" type="matrix" values="0 0 0 0 0 0 0 0 0 0 0 0 0 0 0 0 0 0 127 0" result="hardAlpha"/>
<feOffset dy="4"/>
<feGaussianBlur stdDeviation="2"/>
<feComposite in2="hardAlpha" operator="out"/>
<feColorMatrix type="matrix" values="0 0 0 0 0 0 0 0 0 0 0 0 0 0 0 0 0 0 0.25 0"/>
<feBlend mode="normal" in2="BackgroundImageFix" result="effect1_dropShadow_3_96"/>
<feBlend mode="normal" in="SourceGraphic" in2="effect1_dropShadow_3_96" result="shape"/>
</filter>
<filter id="filter1_bd_3_96" x="584.474" y="322" width="687.622" height="1185.03" filterUnits="userSpaceOnUse" color-interpolation-filters="sRGB">
<feFlood flood-opacity="0" result="BackgroundImageFix"/>
<feGaussianBlur in="BackgroundImageFix" stdDeviation="2"/>
<feComposite in2="SourceAlpha" operator="in" result="effect1_backgroundBlur_3_96"/>
<feColorMatrix in="SourceAlpha" type="matrix" values="0 0 0 0 0 0 0 0 0 0 0 0 0 0 0 0 0 0 127 0" result="hardAlpha"/>
<feOffset dy="4"/>
<feGaussianBlur stdDeviation="2"/>
<feComposite in2="hardAlpha" operator="out"/>
<feColorMatrix type="matrix" values="0 0 0 0 0 0 0 0 0 0 0 0 0 0 0 0 0 0 0.25 0"/>
<feBlend mode="normal" in2="effect1_backgroundBlur_3_96" result="effect2_dropShadow_3_96"/>
<feBlend mode="normal" in="SourceGraphic" in2="effect2_dropShadow_3_96" result="shape"/>
</filter>
<filter id="filter2_d_3_96" x="584.474" y="1359" width="550.911" height="148.034" filterUnits="userSpaceOnUse" color-interpolation-filters="sRGB">
<feFlood flood-opacity="0" result="BackgroundImageFix"/>
<feColorMatrix in="SourceAlpha" type="matrix" values="0 0 0 0 0 0 0 0 0 0 0 0 0 0 0 0 0 0 127 0" result="hardAlpha"/>
<feOffset dy="4"/>
<feGaussianBlur stdDeviation="2"/>
<feComposite in2="hardAlpha" operator="out"/>
<feColorMatrix type="matrix" values="0 0 0 0 0 0 0 0 0 0 0 0 0 0 0 0 0 0 0.25 0"/>
<feBlend mode="normal" in2="BackgroundImageFix" result="effect1_dropShadow_3_96"/>
<feBlend mode="normal" in="SourceGraphic" in2="effect1_dropShadow_3_96" result="shape"/>
</filter>
<filter id="filter3_d_3_96" x="705.104" y="326.994" width="566.986" height="756.993" filterUnits="userSpaceOnUse" color-interpolation-filters="sRGB">
<feFlood flood-opacity="0" result="BackgroundImageFix"/>
<feColorMatrix in="SourceAlpha" type="matrix" values="0 0 0 0 0 0 0 0 0 0 0 0 0 0 0 0 0 0 127 0" result="hardAlpha"/>
<feOffset dy="3.99395"/>
<feGaussianBlur stdDeviation="1.99697"/>
<feComposite in2="hardAlpha" operator="out"/>
<feColorMatrix type="matrix" values="0 0 0 0 0 0 0 0 0 0 0 0 0 0 0 0 0 0 0.25 0"/>
<feBlend mode="normal" in2="BackgroundImageFix" result="effect1_dropShadow_3_96"/>
<feBlend mode="normal" in="SourceGraphic" in2="effect1_dropShadow_3_96" result="shape"/>
</filter>
</defs>
</svg>
