<svg width="3430" height="2003" viewBox="0 0 3430 2003" fill="none" xmlns="http://www.w3.org/2000/svg">
<g filter="url(#filter0_bd_4_14)">
<g filter="url(#filter1_d_4_14)">
<path d="M300.596 1066C386.096 1077.67 551.896 1109 531.096 1141C505.096 1181 12.0963 1143 20.0963 1104.5C26.4963 1073.7 154.763 1054 218.096 1048" stroke="black" stroke-width="30" stroke-linecap="round" stroke-linejoin="round"/>
</g>
<path d="M318.781 714C297.947 828.667 257.881 1058 264.281 1058" stroke="black" stroke-width="30" stroke-linecap="round" stroke-linejoin="round"/>
<path d="M207.425 15.2407C338.99 12.9401 629.55 26.4562 658.362 85.1218C694.378 158.454 123.553 15.0387 207.425 15.2407Z" stroke="black" stroke-width="30" stroke-linecap="round" stroke-linejoin="round"/>
<path d="M651.596 268.5C578.396 226.1 442.096 250.833 383.096 268.5C372.096 334.5 503.596 385 516.596 391C526.996 395.8 606.263 378.667 644.596 369.5L651.596 268.5Z" fill="#A40404" stroke="white"/>
<path d="M646.096 272C607.096 255.833 499.196 233.2 379.596 272" stroke="black" stroke-width="30" stroke-linecap="round" stroke-linejoin="round"/>
<path d="M468.596 373C308.596 165.8 195.93 197 159.596 238.5L148.596 402L172.596 616L287.096 736.5L506.096 662C550.096 558.833 634.496 356.6 620.096 373C605.696 389.4 513.096 379.833 468.596 373Z" fill="#59191F" stroke="white"/>
<g filter="url(#filter2_d_4_14)">
<path d="M197.645 26C140.039 270.103 88.6294 751.421 343.836 723.866C662.845 689.422 662.845 135.322 658.826 120.846" stroke="black" stroke-width="50" stroke-linecap="round" stroke-linejoin="round"/>
</g>
<path d="M185.596 231.5C197.596 231.5 266.596 141 416.096 320.5C565.596 500 682.596 264 626.096 383" stroke="black" stroke-width="30" stroke-linecap="round" stroke-linejoin="round"/>
</g>
<g filter="url(#filter3_dd_4_14)">
<path d="M570 1089.5C540.333 1089.5 513.5 1082.83 489.5 1069.5C465.833 1056.17 447 1036.67 433 1011C419 985 412 954 412 918C412 867.333 421.167 822.667 439.5 784C458.167 745.333 483.333 715.5 515 694.5C547 673.5 582.333 663 621 663C650.667 663 677.333 669.667 701 683C725 696.333 744 716 758 742C772 767.667 779 798.5 779 834.5C779 885.167 769.667 929.833 751 968.5C732.667 1007.17 707.5 1037 675.5 1058C643.833 1079 608.667 1089.5 570 1089.5ZM575 1030.5C601 1030.5 623.833 1022.5 643.5 1006.5C663.5 990.5 678.833 968.333 689.5 940C700.167 911.333 705.5 879 705.5 843C705.5 803.333 697.167 773.333 680.5 753C663.833 732.333 642.333 722 616 722C590.333 722 567.667 730 548 746C528.333 761.667 513 783.833 502 812.5C491 840.833 485.5 873.167 485.5 909.5C485.5 949.167 493.833 979.333 510.5 1000C527.167 1020.33 548.667 1030.5 575 1030.5ZM1035.2 975.5C1039.54 975.5 1042.87 977.5 1045.2 981.5C1047.87 985.5 1049.2 991 1049.2 998C1049.2 1011.33 1046.04 1021.67 1039.7 1029C1027.37 1044 1009.87 1057.83 987.203 1070.5C964.87 1083.17 940.87 1089.5 915.203 1089.5C880.203 1089.5 853.036 1080 833.703 1061C814.37 1042 804.703 1016 804.703 983C804.703 960 809.536 938.667 819.203 919C828.87 899 842.203 883.167 859.203 871.5C876.536 859.833 896.036 854 917.703 854C937.036 854 952.536 859.833 964.203 871.5C975.87 882.833 981.703 898.333 981.703 918C981.703 941 973.37 960.833 956.703 977.5C940.37 993.833 912.536 1006.83 873.203 1016.5C881.536 1031.83 897.37 1039.5 920.703 1039.5C935.703 1039.5 952.703 1034.33 971.703 1024C991.036 1013.33 1007.7 999.5 1021.7 982.5C1025.7 977.833 1030.2 975.5 1035.2 975.5ZM909.203 903C896.87 903 886.37 910.167 877.703 924.5C869.37 938.833 865.203 956.167 865.203 976.5V977.5C884.87 972.833 900.37 965.833 911.703 956.5C923.036 947.167 928.703 936.333 928.703 924C928.703 917.667 926.87 912.667 923.203 909C919.87 905 915.203 903 909.203 903ZM1043.99 1089.5C1031.33 1089.5 1022.33 1082.83 1016.99 1069.5C1011.99 1056.17 1009.49 1034.83 1009.49 1005.5C1009.49 962.167 1015.66 921 1027.99 882C1030.99 872.333 1035.83 865.333 1042.49 861C1049.49 856.333 1059.16 854 1071.49 854C1078.16 854 1082.83 854.833 1085.49 856.5C1088.16 858.167 1089.49 861.333 1089.49 866C1089.49 871.333 1086.99 883.333 1081.99 902C1078.66 915.333 1075.99 927 1073.99 937C1071.99 947 1070.33 959.333 1068.99 974C1079.99 945.333 1092.33 922 1105.99 904C1119.66 886 1132.99 873.167 1145.99 865.5C1159.33 857.833 1171.49 854 1182.49 854C1204.16 854 1214.99 864.833 1214.99 886.5C1214.99 899.5 1211.33 923 1203.99 957C1197.66 986 1194.49 1005.17 1194.49 1014.5C1194.49 1027.83 1199.33 1034.5 1208.99 1034.5C1215.66 1034.5 1223.49 1030.5 1232.49 1022.5C1241.83 1014.17 1254.16 1000.83 1269.49 982.5C1273.49 977.833 1277.99 975.5 1282.99 975.5C1287.33 975.5 1290.66 977.5 1292.99 981.5C1295.66 985.5 1296.99 991 1296.99 998C1296.99 1011.33 1293.83 1021.67 1287.49 1029C1273.16 1046.67 1257.66 1061.17 1240.99 1072.5C1224.66 1083.83 1205.99 1089.5 1184.99 1089.5C1167.99 1089.5 1155.16 1084.67 1146.49 1075C1137.83 1065 1133.49 1050.67 1133.49 1032C1133.49 1022.67 1135.83 1006 1140.49 982C1144.83 961 1146.99 946.5 1146.99 938.5C1146.99 933.167 1145.16 930.5 1141.49 930.5C1137.16 930.5 1130.99 936.167 1122.99 947.5C1115.33 958.5 1107.33 973.167 1098.99 991.5C1090.99 1009.83 1084.49 1029.17 1079.49 1049.5C1075.83 1065.17 1071.49 1075.83 1066.49 1081.5C1061.83 1086.83 1054.33 1089.5 1043.99 1089.5ZM1511.54 933.5C1515.87 933.5 1519.21 935.667 1521.54 940C1523.87 944.333 1525.04 949.833 1525.04 956.5C1525.04 972.5 1520.21 982 1510.54 985C1490.54 992 1468.54 996 1444.54 997C1438.21 1025 1425.71 1047.5 1407.04 1064.5C1388.37 1081.17 1367.21 1089.5 1343.54 1089.5C1323.54 1089.5 1306.37 1084.67 1292.04 1075C1278.04 1065.33 1267.37 1052.5 1260.04 1036.5C1252.71 1020.5 1249.04 1003.17 1249.04 984.5C1249.04 959.167 1253.87 936.667 1263.54 917C1273.21 897 1286.54 881.5 1303.54 870.5C1320.54 859.167 1339.37 853.5 1360.04 853.5C1385.37 853.5 1405.71 862.333 1421.04 880C1436.71 897.333 1445.87 918.833 1448.54 944.5C1464.21 943.5 1482.87 940.167 1504.54 934.5C1507.21 933.833 1509.54 933.5 1511.54 933.5ZM1347.54 1036.5C1358.21 1036.5 1367.37 1032.17 1375.04 1023.5C1383.04 1014.83 1388.37 1002.33 1391.04 986C1380.71 979 1372.71 969.833 1367.04 958.5C1361.71 947.167 1359.04 935.167 1359.04 922.5C1359.04 917.167 1359.54 911.833 1360.54 906.5H1358.04C1344.71 906.5 1333.54 913 1324.54 926C1315.87 938.667 1311.54 956.667 1311.54 980C1311.54 998.333 1315.04 1012.33 1322.04 1022C1329.37 1031.67 1337.87 1036.5 1347.54 1036.5ZM1671.63 975.5C1675.96 975.5 1679.29 977.5 1681.63 981.5C1684.29 985.5 1685.63 991 1685.63 998C1685.63 1011.33 1682.46 1021.67 1676.13 1029C1661.79 1046.67 1646.13 1061.17 1629.13 1072.5C1612.46 1083.83 1593.46 1089.5 1572.13 1089.5C1542.79 1089.5 1520.96 1076.17 1506.63 1049.5C1492.63 1022.83 1485.63 988.333 1485.63 946C1485.63 905.333 1490.79 859 1501.13 807C1511.79 755 1527.29 710.333 1547.63 673C1568.29 635.667 1592.79 617 1621.13 617C1637.13 617 1649.63 624.5 1658.63 639.5C1667.96 654.167 1672.63 675.333 1672.63 703C1672.63 742.667 1661.63 788.667 1639.63 841C1617.63 893.333 1587.79 945.167 1550.13 996.5C1552.46 1010.17 1556.29 1020 1561.63 1026C1566.96 1031.67 1573.96 1034.5 1582.63 1034.5C1596.29 1034.5 1608.29 1030.67 1618.63 1023C1628.96 1015 1642.13 1001.5 1658.13 982.5C1662.13 977.833 1666.63 975.5 1671.63 975.5ZM1610.13 666.5C1602.46 666.5 1593.79 680.333 1584.13 708C1574.46 735.667 1565.96 770 1558.63 811C1551.29 852 1547.29 891.333 1546.63 929C1570.29 890 1589.13 851 1603.13 812C1617.13 772.667 1624.13 736.833 1624.13 704.5C1624.13 679.167 1619.46 666.5 1610.13 666.5ZM1900.21 933.5C1904.54 933.5 1907.88 935.667 1910.21 940C1912.54 944.333 1913.71 949.833 1913.71 956.5C1913.71 972.5 1908.88 982 1899.21 985C1879.21 992 1857.21 996 1833.21 997C1826.88 1025 1814.38 1047.5 1795.71 1064.5C1777.04 1081.17 1755.88 1089.5 1732.21 1089.5C1712.21 1089.5 1695.04 1084.67 1680.71 1075C1666.71 1065.33 1656.04 1052.5 1648.71 1036.5C1641.38 1020.5 1637.71 1003.17 1637.71 984.5C1637.71 959.167 1642.54 936.667 1652.21 917C1661.88 897 1675.21 881.5 1692.21 870.5C1709.21 859.167 1728.04 853.5 1748.71 853.5C1774.04 853.5 1794.38 862.333 1809.71 880C1825.38 897.333 1834.54 918.833 1837.21 944.5C1852.88 943.5 1871.54 940.167 1893.21 934.5C1895.88 933.833 1898.21 933.5 1900.21 933.5ZM1736.21 1036.5C1746.88 1036.5 1756.04 1032.17 1763.71 1023.5C1771.71 1014.83 1777.04 1002.33 1779.71 986C1769.38 979 1761.38 969.833 1755.71 958.5C1750.38 947.167 1747.71 935.167 1747.71 922.5C1747.71 917.167 1748.21 911.833 1749.21 906.5H1746.71C1733.38 906.5 1722.21 913 1713.21 926C1704.54 938.667 1700.21 956.667 1700.21 980C1700.21 998.333 1703.71 1012.33 1710.71 1022C1718.04 1031.67 1726.54 1036.5 1736.21 1036.5ZM2126.8 976.5C2131.13 976.5 2134.46 978.667 2136.8 983C2139.46 987 2140.8 992.167 2140.8 998.5C2140.8 1006.17 2139.63 1012.17 2137.3 1016.5C2134.96 1020.83 2131.3 1024.67 2126.3 1028C2097.63 1047.33 2076.63 1061.67 2063.3 1071L2031.3 1092.5C2018.63 1161.5 2001.96 1215.67 1981.3 1255C1960.96 1294.67 1934.96 1314.5 1903.3 1314.5C1886.3 1314.5 1872.46 1309.17 1861.8 1298.5C1851.13 1288.17 1845.8 1274.5 1845.8 1257.5C1845.8 1233.83 1855.13 1208.33 1873.8 1181C1892.46 1154 1927.46 1120.67 1978.8 1081L1981.8 1061.5C1976.13 1070.5 1968.63 1077.5 1959.3 1082.5C1950.3 1087.17 1941.3 1089.5 1932.3 1089.5C1911.63 1089.5 1895.13 1082 1882.8 1067C1870.46 1052 1864.3 1032.33 1864.3 1008C1864.3 981.333 1870.46 956.167 1882.8 932.5C1895.13 908.5 1911.46 889.333 1931.8 875C1952.46 860.333 1974.3 853 1997.3 853C2004.63 853 2009.46 854.5 2011.8 857.5C2014.46 860.167 2016.63 865.167 2018.3 872.5C2024.63 871.167 2031.96 870.5 2040.3 870.5C2048.63 870.5 2054.46 871.833 2057.8 874.5C2061.46 876.833 2063.3 881.667 2063.3 889C2063.3 893 2063.13 896.167 2062.8 898.5C2061.46 908.833 2057.3 935 2050.3 977C2048.96 985 2047.46 993.833 2045.8 1003.5C2044.46 1012.83 2042.96 1022.83 2041.3 1033.5C2066.96 1013.5 2091.63 995.833 2115.3 980.5C2119.63 977.833 2123.46 976.5 2126.8 976.5ZM1950.3 1039C1957.96 1039 1965.3 1034.33 1972.3 1025C1979.3 1015.67 1984.3 1002.33 1987.3 985L2003.3 899.5C1989.63 899.833 1976.96 905.167 1965.3 915.5C1953.63 925.5 1944.3 938.833 1937.3 955.5C1930.3 972.167 1926.8 989.833 1926.8 1008.5C1926.8 1018.83 1928.8 1026.5 1932.8 1031.5C1937.13 1036.5 1942.96 1039 1950.3 1039ZM1908.8 1266C1917.13 1266 1926.46 1256 1936.8 1236C1947.46 1216 1957.63 1184.17 1967.3 1140.5C1941.63 1162.5 1923.13 1182.33 1911.8 1200C1900.46 1217.67 1894.8 1233.17 1894.8 1246.5C1894.8 1252.17 1895.8 1256.83 1897.8 1260.5C1900.13 1264.17 1903.8 1266 1908.8 1266ZM2170.18 821C2156.18 821 2145.68 817.833 2138.68 811.5C2131.68 804.833 2128.18 795.667 2128.18 784C2128.18 772.333 2132.68 762.667 2141.68 755C2151.02 747 2162.52 743 2176.18 743C2188.52 743 2198.52 746 2206.18 752C2213.85 758 2217.68 766.5 2217.68 777.5C2217.68 790.833 2213.35 801.5 2204.68 809.5C2196.02 817.167 2184.52 821 2170.18 821ZM2166.18 1089.5C2144.52 1089.5 2128.68 1081.83 2118.68 1066.5C2109.02 1051.17 2104.18 1030.83 2104.18 1005.5C2104.18 990.5 2106.02 971.333 2109.68 948C2113.68 924.333 2118.68 902.333 2124.68 882C2127.68 871.333 2131.68 864 2136.68 860C2141.68 856 2149.68 854 2160.68 854C2177.68 854 2186.18 859.667 2186.18 871C2186.18 879.333 2183.02 898.667 2176.68 929C2168.68 965.667 2164.68 990.5 2164.68 1003.5C2164.68 1013.5 2166.02 1021.17 2168.68 1026.5C2171.35 1031.83 2175.85 1034.5 2182.18 1034.5C2188.18 1034.5 2195.68 1030.33 2204.68 1022C2213.68 1013.67 2225.68 1000.5 2240.68 982.5C2244.68 977.833 2249.18 975.5 2254.18 975.5C2258.52 975.5 2261.85 977.5 2264.18 981.5C2266.85 985.5 2268.18 991 2268.18 998C2268.18 1011.33 2265.02 1021.67 2258.68 1029C2225.68 1069.33 2194.85 1089.5 2166.18 1089.5ZM2440.23 1035C2453.9 1037.67 2460.73 1045.17 2460.73 1057.5C2460.73 1065.83 2456.9 1073.33 2449.23 1080C2441.9 1086.33 2431.23 1089.5 2417.23 1089.5C2393.23 1089.5 2373.56 1082.17 2358.23 1067.5C2343.23 1052.5 2335.73 1033 2335.73 1009C2335.73 996 2342.4 986.667 2355.73 981C2370.4 974.667 2380.9 968 2387.23 961C2393.56 953.667 2396.73 944.833 2396.73 934.5C2396.73 928.5 2395.4 924 2392.73 921C2390.4 918 2387.4 916.5 2383.73 916.5C2374.73 916.5 2364.73 923 2353.73 936C2343.06 949 2333.06 965.833 2323.73 986.5C2314.4 1006.83 2307.06 1027.83 2301.73 1049.5C2298.06 1065.17 2293.73 1075.83 2288.73 1081.5C2284.06 1086.83 2276.56 1089.5 2266.23 1089.5C2255.9 1089.5 2248.23 1085.83 2243.23 1078.5C2238.56 1070.83 2235.4 1059.17 2233.73 1043.5C2232.06 1027.83 2231.23 1004.83 2231.23 974.5C2231.23 923.167 2236.4 869.667 2246.73 814C2257.4 758.333 2272.9 711.667 2293.23 674C2313.9 636 2338.56 617 2367.23 617C2382.56 617 2394.9 623.667 2404.23 637C2413.9 650 2418.73 667 2418.73 688C2418.73 721.667 2408.9 756.667 2389.23 793C2369.56 829 2337.56 871.167 2293.23 919.5C2292.23 936.833 2291.73 954.667 2291.73 973C2307.73 931.333 2326.06 901.167 2346.73 882.5C2367.4 863.5 2386.73 854 2404.73 854C2421.4 854 2434.73 859.667 2444.73 871C2455.06 882.333 2460.23 896.333 2460.23 913C2460.23 931.333 2455.56 948.167 2446.23 963.5C2436.9 978.833 2420.9 992.5 2398.23 1004.5C2400.23 1014.5 2404.23 1021.5 2410.23 1025.5C2416.56 1029.17 2426.56 1032.33 2440.23 1035ZM2356.73 666.5C2350.73 666.5 2344.06 675.167 2336.73 692.5C2329.4 709.5 2322.23 732.667 2315.23 762C2308.56 791 2303.06 822.667 2298.73 857C2319.4 832.667 2336.4 806.167 2349.73 777.5C2363.4 748.833 2370.23 722.833 2370.23 699.5C2370.23 688.833 2369.06 680.667 2366.73 675C2364.4 669.333 2361.06 666.5 2356.73 666.5Z" fill="black"/>
<path d="M489.5 1069.5L489.255 1069.94L489.257 1069.94L489.5 1069.5ZM433 1011L432.56 1011.24L432.561 1011.24L433 1011ZM439.5 784L439.05 783.783L439.048 783.786L439.5 784ZM515 694.5L514.726 694.082L514.724 694.083L515 694.5ZM701 683L700.755 683.436L700.757 683.437L701 683ZM758 742L757.56 742.237L757.561 742.239L758 742ZM751 968.5L750.55 968.283L750.548 968.286L751 968.5ZM675.5 1058L675.226 1057.58L675.224 1057.58L675.5 1058ZM643.5 1006.5L643.188 1006.11L643.184 1006.11L643.5 1006.5ZM689.5 940L689.968 940.176L689.969 940.174L689.5 940ZM680.5 753L680.111 753.314L680.113 753.317L680.5 753ZM548 746L548.312 746.391L548.316 746.388L548 746ZM502 812.5L502.466 812.681L502.467 812.679L502 812.5ZM510.5 1000L510.111 1000.31L510.113 1000.32L510.5 1000ZM570 1089C540.411 1089 513.663 1082.35 489.743 1069.06L489.257 1069.94C513.337 1083.31 540.255 1090 570 1090V1089ZM489.745 1069.06C466.167 1055.78 447.398 1036.35 433.439 1010.76L432.561 1011.24C446.602 1036.98 465.5 1056.55 489.255 1069.94L489.745 1069.06ZM433.44 1010.76C419.487 984.85 412.5 953.935 412.5 918H411.5C411.5 954.065 418.513 985.15 432.56 1011.24L433.44 1010.76ZM412.5 918C412.5 867.394 421.656 822.803 439.952 784.214L439.048 783.786C420.678 822.531 411.5 867.273 411.5 918H412.5ZM439.95 784.217C458.583 745.621 483.694 715.861 515.276 694.917L514.724 694.083C482.973 715.139 457.75 745.046 439.05 783.783L439.95 784.217ZM515.274 694.918C547.192 673.972 582.43 663.5 621 663.5V662.5C582.237 662.5 546.808 673.028 514.726 694.082L515.274 694.918ZM621 663.5C650.589 663.5 677.17 670.148 700.755 683.436L701.245 682.564C677.497 669.185 650.745 662.5 621 662.5V663.5ZM700.757 683.437C724.667 696.72 743.602 716.315 757.56 742.237L758.44 741.763C744.398 715.685 725.333 695.946 701.243 682.563L700.757 683.437ZM757.561 742.239C771.513 767.818 778.5 798.565 778.5 834.5H779.5C779.5 798.435 772.487 767.516 758.439 741.761L757.561 742.239ZM778.5 834.5C778.5 885.105 769.178 929.695 750.55 968.283L751.45 968.717C770.155 929.972 779.5 885.228 779.5 834.5H778.5ZM750.548 968.286C732.249 1006.88 707.14 1036.64 675.226 1057.58L675.774 1058.42C707.86 1037.36 733.084 1007.45 751.452 968.714L750.548 968.286ZM675.224 1057.58C643.64 1078.53 608.57 1089 570 1089V1090C608.763 1090 644.026 1079.47 675.776 1058.42L675.224 1057.58ZM575 1031C601.112 1031 624.057 1022.96 643.816 1006.89L643.184 1006.11C623.609 1022.04 600.888 1030 575 1030V1031ZM643.812 1006.89C663.894 990.825 679.275 968.578 689.968 940.176L689.032 939.824C678.391 968.089 663.106 990.175 643.188 1006.11L643.812 1006.89ZM689.969 940.174C700.659 911.443 706 879.049 706 843H705C705 878.951 699.674 911.224 689.031 939.826L689.969 940.174ZM706 843C706 803.274 697.656 773.141 680.887 752.683L680.113 753.317C696.678 773.525 705 803.393 705 843H706ZM680.889 752.686C664.129 731.903 642.486 721.5 616 721.5V722.5C642.181 722.5 663.538 732.764 680.111 753.314L680.889 752.686ZM616 721.5C590.22 721.5 567.441 729.539 547.684 745.612L548.316 746.388C567.892 730.461 590.447 722.5 616 722.5V721.5ZM547.688 745.609C527.938 761.342 512.558 783.589 501.533 812.321L502.467 812.679C513.442 784.077 528.729 761.991 548.312 746.391L547.688 745.609ZM501.534 812.319C490.508 840.72 485 873.117 485 909.5H486C486 873.217 491.492 840.947 502.466 812.681L501.534 812.319ZM485 909.5C485 949.227 493.345 979.524 510.111 1000.31L510.889 999.686C494.322 979.143 486 949.107 486 909.5H485ZM510.113 1000.32C526.875 1020.77 548.517 1031 575 1031V1030C548.816 1030 527.458 1019.9 510.887 999.683L510.113 1000.32ZM1045.2 981.5L1044.77 981.752L1044.78 981.765L1044.79 981.777L1045.2 981.5ZM1039.7 1029L1039.32 1028.67L1039.32 1028.68L1039.7 1029ZM987.203 1070.5L986.959 1070.06L986.956 1070.07L987.203 1070.5ZM833.703 1061L834.054 1060.64L833.703 1061ZM819.203 919L819.652 919.221L819.653 919.218L819.203 919ZM859.203 871.5L858.924 871.085L858.92 871.088L859.203 871.5ZM964.203 871.5L963.85 871.854L963.855 871.859L964.203 871.5ZM956.703 977.5L956.35 977.146L956.703 977.5ZM873.203 1016.5L873.084 1016.01L872.454 1016.17L872.764 1016.74L873.203 1016.5ZM971.703 1024L971.942 1024.44L971.945 1024.44L971.703 1024ZM1021.7 982.5L1021.32 982.175L1021.32 982.182L1021.7 982.5ZM877.703 924.5L877.275 924.241L877.271 924.249L877.703 924.5ZM865.203 977.5H864.703V978.133L865.319 977.987L865.203 977.5ZM911.703 956.5L911.385 956.114L911.703 956.5ZM923.203 909L922.819 909.32L922.834 909.338L922.85 909.354L923.203 909ZM1035.2 976C1039.34 976 1042.52 977.893 1044.77 981.752L1045.64 981.248C1043.22 977.107 1039.73 975 1035.2 975V976ZM1044.79 981.777C1047.38 985.666 1048.7 991.056 1048.7 998H1049.7C1049.7 990.944 1048.36 985.334 1045.62 981.223L1044.79 981.777ZM1048.7 998C1048.7 1011.26 1045.55 1021.46 1039.32 1028.67L1040.08 1029.33C1046.52 1021.87 1049.7 1011.41 1049.7 998H1048.7ZM1039.32 1028.68C1027.03 1043.62 1009.59 1057.42 986.959 1070.06L987.447 1070.94C1010.15 1058.25 1027.71 1044.38 1040.09 1029.32L1039.32 1028.68ZM986.956 1070.07C964.698 1082.69 940.783 1089 915.203 1089V1090C940.956 1090 965.041 1083.64 987.45 1070.93L986.956 1070.07ZM915.203 1089C880.294 1089 853.268 1079.53 834.054 1060.64L833.353 1061.36C852.804 1080.47 880.112 1090 915.203 1090V1089ZM834.054 1060.64C814.836 1041.76 805.203 1015.9 805.203 983H804.203C804.203 1016.1 813.904 1042.24 833.353 1061.36L834.054 1060.64ZM805.203 983C805.203 960.073 810.021 938.815 819.652 919.221L818.754 918.779C809.052 938.518 804.203 959.927 804.203 983H805.203ZM819.653 919.218C829.285 899.29 842.563 883.526 859.486 871.912L858.92 871.088C841.843 882.807 828.454 898.71 818.753 918.782L819.653 919.218ZM859.482 871.915C876.73 860.306 896.132 854.5 917.703 854.5V853.5C895.941 853.5 876.343 859.361 858.924 871.085L859.482 871.915ZM917.703 854.5C936.928 854.5 952.293 860.297 963.85 871.854L964.557 871.146C952.78 859.37 937.145 853.5 917.703 853.5V854.5ZM963.855 871.859C975.405 883.079 981.203 898.438 981.203 918H982.203C982.203 898.229 976.335 882.588 964.552 871.141L963.855 871.859ZM981.203 918C981.203 940.864 972.925 960.571 956.35 977.146L957.057 977.854C973.815 961.096 982.203 941.136 982.203 918H981.203ZM956.35 977.146C940.113 993.383 912.387 1006.36 873.084 1016.01L873.322 1016.99C912.686 1007.31 940.627 994.284 957.057 977.854L956.35 977.146ZM872.764 1016.74C881.214 1032.29 897.258 1040 920.703 1040V1039C897.482 1039 881.859 1031.38 873.642 1016.26L872.764 1016.74ZM920.703 1040C935.815 1040 952.899 1034.8 971.942 1024.44L971.464 1023.56C952.507 1033.87 935.591 1039 920.703 1039V1040ZM971.945 1024.44C991.333 1013.74 1008.05 999.867 1022.09 982.818L1021.32 982.182C1007.36 999.133 990.74 1012.93 971.462 1023.56L971.945 1024.44ZM1022.08 982.825C1026.01 978.242 1030.38 976 1035.2 976V975C1030.02 975 1025.39 977.425 1021.32 982.175L1022.08 982.825ZM909.203 902.5C896.634 902.5 885.996 909.818 877.275 924.241L878.131 924.759C886.743 910.515 897.105 903.5 909.203 903.5V902.5ZM877.271 924.249C868.884 938.674 864.703 956.098 864.703 976.5H865.703C865.703 956.235 869.855 938.993 878.135 924.751L877.271 924.249ZM864.703 976.5V977.5H865.703V976.5H864.703ZM865.319 977.987C885.033 973.308 900.611 966.283 912.021 956.886L911.385 956.114C900.129 965.384 884.707 972.358 865.088 977.013L865.319 977.987ZM912.021 956.886C923.445 947.478 929.203 936.512 929.203 924H928.203C928.203 936.155 922.628 946.856 911.385 956.114L912.021 956.886ZM929.203 924C929.203 917.565 927.337 912.427 923.557 908.646L922.85 909.354C926.402 912.906 928.203 917.768 928.203 924H929.203ZM923.587 908.68C920.144 904.548 915.326 902.5 909.203 902.5V903.5C915.08 903.5 919.596 905.452 922.819 909.32L923.587 908.68ZM1016.99 1069.5L1016.52 1069.68L1016.53 1069.69L1016.99 1069.5ZM1027.99 882L1028.47 882.151L1028.47 882.148L1027.99 882ZM1042.49 861L1042.76 861.419L1042.77 861.416L1042.49 861ZM1081.99 902L1081.51 901.871L1081.51 901.879L1081.99 902ZM1068.99 974L1068.49 973.955L1069.46 974.179L1068.99 974ZM1105.99 904L1105.59 903.698L1105.99 904ZM1145.99 865.5L1145.74 865.066L1145.74 865.069L1145.99 865.5ZM1203.99 957L1204.48 957.107L1204.48 957.105L1203.99 957ZM1232.49 1022.5L1232.82 1022.87L1232.83 1022.87L1232.49 1022.5ZM1269.49 982.5L1269.11 982.175L1269.11 982.179L1269.49 982.5ZM1292.99 981.5L1292.56 981.752L1292.57 981.765L1292.58 981.777L1292.99 981.5ZM1287.49 1029L1287.11 1028.67L1287.11 1028.68L1287.1 1028.68L1287.49 1029ZM1240.99 1072.5L1240.71 1072.09L1240.71 1072.09L1240.99 1072.5ZM1146.49 1075L1146.11 1075.33L1146.12 1075.33L1146.49 1075ZM1140.49 982L1140 981.899L1140 981.905L1140.49 982ZM1122.99 947.5L1122.58 947.212L1122.58 947.214L1122.99 947.5ZM1098.99 991.5L1098.54 991.293L1098.53 991.3L1098.99 991.5ZM1079.49 1049.5L1079.01 1049.38L1079.01 1049.39L1079.49 1049.5ZM1066.49 1081.5L1066.12 1081.17L1066.12 1081.17L1066.49 1081.5ZM1043.99 1089C1037.75 1089 1032.44 1087.36 1028.04 1084.1C1023.63 1080.83 1020.1 1075.92 1017.46 1069.31L1016.53 1069.69C1019.22 1076.41 1022.85 1081.5 1027.44 1084.9C1032.04 1088.31 1037.57 1090 1043.99 1090V1089ZM1017.46 1069.32C1012.49 1056.08 1009.99 1034.82 1009.99 1005.5H1008.99C1008.99 1034.84 1011.49 1056.25 1016.52 1069.68L1017.46 1069.32ZM1009.99 1005.5C1009.99 962.215 1016.15 921.099 1028.47 882.151L1027.52 881.849C1015.17 920.901 1008.99 962.119 1008.99 1005.5H1009.99ZM1028.47 882.148C1031.44 872.562 1036.22 865.673 1042.76 861.419L1042.22 860.581C1035.43 864.993 1030.54 872.105 1027.51 881.852L1028.47 882.148ZM1042.77 861.416C1049.66 856.824 1059.21 854.5 1071.49 854.5V853.5C1059.1 853.5 1049.33 855.843 1042.21 860.584L1042.77 861.416ZM1071.49 854.5C1078.15 854.5 1082.69 855.338 1085.23 856.924L1085.76 856.076C1082.96 854.329 1078.17 853.5 1071.49 853.5V854.5ZM1085.23 856.924C1087.68 858.46 1088.99 861.416 1088.99 866H1089.99C1089.99 861.251 1088.63 857.873 1085.76 856.076L1085.23 856.924ZM1088.99 866C1088.99 868.611 1088.38 872.9 1087.13 878.898C1085.88 884.885 1084.01 892.542 1081.51 901.871L1082.48 902.129C1084.98 892.791 1086.85 885.115 1088.11 879.102C1089.36 873.1 1089.99 868.723 1089.99 866H1088.99ZM1081.51 901.879C1078.17 915.217 1075.5 926.892 1073.5 936.902L1074.48 937.098C1076.48 927.108 1079.15 915.449 1082.48 902.121L1081.51 901.879ZM1073.5 936.902C1071.5 946.925 1069.83 959.277 1068.49 973.955L1069.49 974.045C1070.82 959.389 1072.49 947.075 1074.48 937.098L1073.5 936.902ZM1069.46 974.179C1080.45 945.542 1092.76 922.254 1106.39 904.302L1105.59 903.698C1091.89 921.746 1079.54 945.125 1068.53 973.821L1069.46 974.179ZM1106.39 904.302C1120.04 886.331 1133.32 873.552 1146.25 865.931L1145.74 865.069C1132.66 872.781 1119.28 885.669 1105.59 903.698L1106.39 904.302ZM1146.24 865.933C1159.53 858.294 1171.61 854.5 1182.49 854.5V853.5C1171.38 853.5 1159.12 857.373 1145.74 865.067L1146.24 865.933ZM1182.49 854.5C1193.25 854.5 1201.22 857.189 1206.51 862.479C1211.8 867.768 1214.49 875.744 1214.49 886.5H1215.49C1215.49 875.59 1212.76 867.315 1207.22 861.771C1201.68 856.228 1193.4 853.5 1182.49 853.5V854.5ZM1214.49 886.5C1214.49 899.439 1210.84 922.89 1203.5 956.895L1204.48 957.105C1211.81 923.11 1215.49 899.561 1215.49 886.5H1214.49ZM1203.5 956.893C1197.17 985.882 1193.99 1005.1 1193.99 1014.5H1194.99C1194.99 1005.23 1198.14 986.118 1204.48 957.107L1203.5 956.893ZM1193.99 1014.5C1193.99 1021.21 1195.21 1026.34 1197.71 1029.79C1200.24 1033.28 1204.03 1035 1208.99 1035V1034C1204.29 1034 1200.83 1032.39 1198.52 1029.21C1196.19 1026 1194.99 1021.12 1194.99 1014.5H1193.99ZM1208.99 1035C1215.85 1035 1223.8 1030.9 1232.82 1022.87L1232.16 1022.13C1223.19 1030.1 1215.47 1034 1208.99 1034V1035ZM1232.83 1022.87C1242.19 1014.51 1254.54 1001.16 1269.88 982.821L1269.11 982.179C1253.78 1000.51 1241.46 1013.82 1232.16 1022.13L1232.83 1022.87ZM1269.87 982.825C1273.8 978.242 1278.17 976 1282.99 976V975C1277.81 975 1273.18 977.425 1269.11 982.175L1269.87 982.825ZM1282.99 976C1287.13 976 1290.31 977.893 1292.56 981.752L1293.42 981.248C1291.01 977.107 1287.52 975 1282.99 975V976ZM1292.58 981.777C1295.17 985.666 1296.49 991.056 1296.49 998H1297.49C1297.49 990.944 1296.15 985.334 1293.41 981.223L1292.58 981.777ZM1296.49 998C1296.49 1011.26 1293.34 1021.46 1287.11 1028.67L1287.87 1029.33C1294.31 1021.87 1297.49 1011.41 1297.49 998H1296.49ZM1287.1 1028.68C1272.8 1046.32 1257.33 1060.78 1240.71 1072.09L1241.27 1072.91C1257.99 1061.55 1273.52 1047.01 1287.88 1029.32L1287.1 1028.68ZM1240.71 1072.09C1224.46 1083.36 1205.9 1089 1184.99 1089V1090C1206.09 1090 1224.86 1084.31 1241.28 1072.91L1240.71 1072.09ZM1184.99 1089C1168.09 1089 1155.41 1084.2 1146.86 1074.67L1146.12 1075.33C1154.91 1085.14 1167.9 1090 1184.99 1090V1089ZM1146.87 1074.67C1138.31 1064.79 1133.99 1050.6 1133.99 1032H1132.99C1132.99 1050.74 1137.34 1065.21 1146.11 1075.33L1146.87 1074.67ZM1133.99 1032C1133.99 1022.72 1136.32 1006.1 1140.98 982.095L1140 981.905C1135.34 1005.9 1132.99 1022.61 1132.99 1032H1133.99ZM1140.98 982.101C1145.31 961.105 1147.49 946.558 1147.49 938.5H1146.49C1146.49 946.442 1144.34 960.895 1140 981.899L1140.98 982.101ZM1147.49 938.5C1147.49 935.792 1147.03 933.672 1146.03 932.217C1145.01 930.728 1143.46 930 1141.49 930V931C1143.19 931 1144.4 931.605 1145.21 932.783C1146.04 933.995 1146.49 935.875 1146.49 938.5H1147.49ZM1141.49 930C1139.13 930 1136.38 931.533 1133.28 934.382C1130.16 937.25 1126.59 941.532 1122.58 947.212L1123.4 947.788C1127.39 942.134 1130.91 937.917 1133.96 935.118C1137.02 932.301 1139.52 931 1141.49 931V930ZM1122.58 947.214C1114.89 958.248 1106.88 972.944 1098.54 991.293L1099.45 991.707C1107.77 973.389 1115.76 958.752 1123.4 947.786L1122.58 947.214ZM1098.53 991.3C1090.52 1009.66 1084.01 1029.02 1079.01 1049.38L1079.98 1049.62C1084.97 1029.31 1091.46 1010.01 1099.45 991.7L1098.53 991.3ZM1079.01 1049.39C1075.34 1065.04 1071.03 1075.6 1066.12 1081.17L1066.87 1081.83C1071.96 1076.06 1076.31 1065.29 1079.98 1049.61L1079.01 1049.39ZM1066.12 1081.17C1061.58 1086.35 1054.25 1089 1043.99 1089V1090C1054.4 1090 1062.07 1087.31 1066.87 1081.83L1066.12 1081.17ZM1521.54 940L1521.1 940.237L1521.54 940ZM1510.54 985L1510.39 984.522L1510.38 984.525L1510.37 984.528L1510.54 985ZM1444.54 997L1444.52 996.5L1444.14 996.516L1444.05 996.89L1444.54 997ZM1407.04 1064.5L1407.37 1064.87L1407.38 1064.87L1407.04 1064.5ZM1292.04 1075L1291.75 1075.41L1291.76 1075.41L1292.04 1075ZM1263.54 917L1263.99 917.221L1263.99 917.218L1263.54 917ZM1303.54 870.5L1303.81 870.92L1303.82 870.916L1303.54 870.5ZM1421.04 880L1420.66 880.328L1420.67 880.335L1421.04 880ZM1448.54 944.5L1448.04 944.552L1448.09 945.03L1448.57 944.999L1448.54 944.5ZM1504.54 934.5L1504.42 934.015L1504.41 934.016L1504.54 934.5ZM1375.04 1023.5L1374.67 1023.16L1374.66 1023.17L1375.04 1023.5ZM1391.04 986L1391.53 986.081L1391.58 985.765L1391.32 985.586L1391.04 986ZM1367.04 958.5L1366.59 958.713L1366.59 958.724L1367.04 958.5ZM1360.54 906.5L1361.03 906.592L1361.14 906H1360.54V906.5ZM1324.54 926L1324.13 925.715L1324.13 925.718L1324.54 926ZM1322.04 1022L1321.63 1022.29L1321.64 1022.3L1322.04 1022ZM1511.54 934C1515.66 934 1518.84 936.039 1521.1 940.237L1521.98 939.763C1519.57 935.294 1516.08 933 1511.54 933V934ZM1521.1 940.237C1523.38 944.476 1524.54 949.888 1524.54 956.5H1525.54C1525.54 949.779 1524.36 944.19 1521.98 939.763L1521.1 940.237ZM1524.54 956.5C1524.54 964.457 1523.34 970.745 1520.97 975.398C1518.61 980.035 1515.09 983.065 1510.39 984.522L1510.69 985.478C1515.66 983.935 1519.39 980.715 1521.86 975.852C1524.33 971.005 1525.54 964.543 1525.54 956.5H1524.54ZM1510.37 984.528C1490.43 991.51 1468.48 995.502 1444.52 996.5L1444.56 997.5C1468.6 996.498 1490.65 992.49 1510.7 985.472L1510.37 984.528ZM1444.05 996.89C1437.74 1024.8 1425.28 1047.21 1406.7 1064.13L1407.38 1064.87C1426.13 1047.79 1438.67 1025.2 1445.03 997.11L1444.05 996.89ZM1406.71 1064.13C1388.13 1080.72 1367.08 1089 1343.54 1089V1090C1367.34 1090 1388.62 1081.62 1407.37 1064.87L1406.71 1064.13ZM1343.54 1089C1323.62 1089 1306.56 1084.19 1292.32 1074.59L1291.76 1075.41C1306.19 1085.15 1323.46 1090 1343.54 1090V1089ZM1292.32 1074.59C1278.4 1064.97 1267.79 1052.21 1260.49 1036.29L1259.58 1036.71C1266.95 1052.79 1277.68 1065.69 1291.75 1075.41L1292.32 1074.59ZM1260.49 1036.29C1253.19 1020.36 1249.54 1003.1 1249.54 984.5H1248.54C1248.54 1003.23 1252.22 1020.64 1259.58 1036.71L1260.49 1036.29ZM1249.54 984.5C1249.54 959.231 1254.36 936.809 1263.99 917.221L1263.09 916.779C1253.39 936.525 1248.54 959.102 1248.54 984.5H1249.54ZM1263.99 917.218C1273.62 897.292 1286.89 881.865 1303.81 870.92L1303.27 870.08C1286.18 881.135 1272.79 896.708 1263.09 916.782L1263.99 917.218ZM1303.82 870.916C1320.73 859.638 1339.47 854 1360.04 854V853C1339.27 853 1320.34 858.695 1303.26 870.084L1303.82 870.916ZM1360.04 854C1385.24 854 1405.43 862.78 1420.66 880.328L1421.42 879.672C1405.98 861.886 1385.5 853 1360.04 853V854ZM1420.67 880.335C1436.26 897.582 1445.38 918.979 1448.04 944.552L1449.04 944.448C1446.36 918.688 1437.16 897.085 1421.41 879.665L1420.67 880.335ZM1448.57 944.999C1464.28 943.996 1482.98 940.655 1504.67 934.984L1504.41 934.016C1482.77 939.678 1464.13 943.004 1448.51 944.001L1448.57 944.999ZM1504.66 934.985C1507.3 934.325 1509.59 934 1511.54 934V933C1509.49 933 1507.11 933.342 1504.42 934.015L1504.66 934.985ZM1347.54 1037C1358.36 1037 1367.66 1032.59 1375.41 1023.83L1374.66 1023.17C1367.08 1031.74 1358.05 1036 1347.54 1036V1037ZM1375.41 1023.84C1383.49 1015.08 1388.86 1002.47 1391.53 986.081L1390.55 985.919C1387.89 1002.19 1382.58 1014.59 1374.67 1023.16L1375.41 1023.84ZM1391.32 985.586C1381.06 978.635 1373.12 969.534 1367.49 958.276L1366.59 958.724C1372.3 970.132 1380.35 979.365 1390.76 986.414L1391.32 985.586ZM1367.49 958.287C1362.19 947.021 1359.54 935.094 1359.54 922.5H1358.54C1358.54 935.239 1361.22 947.312 1366.59 958.713L1367.49 958.287ZM1359.54 922.5C1359.54 917.198 1360.04 911.896 1361.03 906.592L1360.05 906.408C1359.04 911.771 1358.54 917.135 1358.54 922.5H1359.54ZM1360.54 906H1358.04V907H1360.54V906ZM1358.04 906C1344.51 906 1333.2 912.609 1324.13 925.715L1324.95 926.285C1333.88 913.391 1344.9 907 1358.04 907V906ZM1324.13 925.718C1315.38 938.5 1311.04 956.615 1311.04 980H1312.04C1312.04 956.718 1316.36 938.833 1324.95 926.282L1324.13 925.718ZM1311.04 980C1311.04 998.386 1314.55 1012.51 1321.63 1022.29L1322.44 1021.71C1315.53 1012.16 1312.04 998.281 1312.04 980H1311.04ZM1321.64 1022.3C1329.04 1032.06 1337.68 1037 1347.54 1037V1036C1338.07 1036 1329.7 1031.28 1322.44 1021.7L1321.64 1022.3ZM1681.62 981.5L1681.19 981.752L1681.2 981.765L1681.21 981.777L1681.62 981.5ZM1676.12 1029L1675.75 1028.67L1675.74 1028.68L1675.74 1028.68L1676.12 1029ZM1629.12 1072.5L1628.85 1072.08L1628.84 1072.09L1629.12 1072.5ZM1506.62 1049.5L1506.18 1049.73L1506.18 1049.74L1506.62 1049.5ZM1501.12 807L1500.64 806.9L1500.63 806.903L1501.12 807ZM1547.62 673L1547.19 672.758L1547.19 672.761L1547.62 673ZM1658.62 639.5L1658.2 639.757L1658.2 639.768L1658.62 639.5ZM1639.62 841L1639.16 840.806L1639.62 841ZM1550.12 996.5L1549.72 996.204L1549.6 996.375L1549.63 996.584L1550.12 996.5ZM1561.62 1026L1561.25 1026.33L1561.26 1026.34L1561.26 1026.34L1561.62 1026ZM1618.62 1023L1618.92 1023.4L1618.93 1023.4L1618.62 1023ZM1658.12 982.5L1657.75 982.175L1657.74 982.178L1658.12 982.5ZM1584.12 708L1583.65 707.835L1584.12 708ZM1558.62 811L1558.13 810.912L1558.62 811ZM1546.62 929L1546.13 928.991L1546.09 930.842L1547.05 929.259L1546.62 929ZM1603.12 812L1603.6 812.169L1603.6 812.168L1603.12 812ZM1671.62 976C1675.77 976 1678.94 977.893 1681.19 981.752L1682.06 981.248C1679.64 977.107 1676.15 975 1671.62 975V976ZM1681.21 981.777C1683.8 985.666 1685.12 991.056 1685.12 998H1686.12C1686.12 990.944 1684.78 985.334 1682.04 981.223L1681.21 981.777ZM1685.12 998C1685.12 1011.26 1681.98 1021.46 1675.75 1028.67L1676.5 1029.33C1682.94 1021.87 1686.12 1011.41 1686.12 998H1685.12ZM1675.74 1028.68C1661.43 1046.32 1645.8 1060.78 1628.85 1072.08L1629.4 1072.92C1646.45 1061.55 1662.15 1047.02 1676.51 1029.32L1675.74 1028.68ZM1628.84 1072.09C1612.27 1083.36 1593.36 1089 1572.12 1089V1090C1593.55 1090 1612.65 1084.31 1629.41 1072.91L1628.84 1072.09ZM1572.12 1089C1557.54 1089 1544.84 1085.69 1534.01 1079.07C1523.18 1072.46 1514.2 1062.53 1507.07 1049.26L1506.18 1049.74C1513.39 1063.13 1522.48 1073.21 1533.49 1079.93C1544.5 1086.65 1557.38 1090 1572.12 1090V1089ZM1507.07 1049.27C1493.12 1022.7 1486.12 988.283 1486.12 946H1485.12C1485.12 988.383 1492.13 1022.97 1506.18 1049.73L1507.07 1049.27ZM1486.12 946C1486.12 905.374 1491.29 859.074 1501.62 807.097L1500.63 806.903C1490.3 858.926 1485.12 905.292 1485.12 946H1486.12ZM1501.61 807.1C1512.27 755.137 1527.76 710.52 1548.06 673.239L1547.19 672.761C1526.82 710.147 1511.31 754.863 1500.64 806.9L1501.61 807.1ZM1548.06 673.242C1568.69 635.98 1593.06 617.5 1621.12 617.5V616.5C1592.53 616.5 1567.89 635.353 1547.19 672.758L1548.06 673.242ZM1621.12 617.5C1636.93 617.5 1649.28 624.891 1658.2 639.757L1659.05 639.243C1649.97 624.109 1637.32 616.5 1621.12 616.5V617.5ZM1658.2 639.768C1667.46 654.32 1672.12 675.377 1672.12 703H1673.12C1673.12 675.29 1668.45 654.013 1659.05 639.232L1658.2 639.768ZM1672.12 703C1672.12 742.578 1661.15 788.51 1639.16 840.806L1640.09 841.194C1662.1 788.823 1673.12 742.755 1673.12 703H1672.12ZM1639.16 840.806C1617.18 893.099 1587.37 944.899 1549.72 996.204L1550.53 996.796C1588.22 945.435 1618.07 893.567 1640.09 841.194L1639.16 840.806ZM1549.63 996.584C1551.97 1010.28 1555.83 1020.23 1561.25 1026.33L1562 1025.67C1556.76 1019.77 1552.95 1010.05 1550.62 996.416L1549.63 996.584ZM1561.26 1026.34C1566.7 1032.12 1573.84 1035 1582.62 1035V1034C1574.08 1034 1567.22 1031.21 1561.99 1025.66L1561.26 1026.34ZM1582.62 1035C1596.39 1035 1608.5 1031.14 1618.92 1023.4L1618.33 1022.6C1608.09 1030.2 1596.19 1034 1582.62 1034V1035ZM1618.93 1023.4C1629.31 1015.36 1642.5 1001.83 1658.51 982.822L1657.74 982.178C1641.75 1001.17 1628.61 1014.64 1618.32 1022.6L1618.93 1023.4ZM1658.5 982.825C1662.43 978.242 1666.8 976 1671.62 976V975C1666.45 975 1661.82 977.425 1657.75 982.175L1658.5 982.825ZM1610.12 666C1608.05 666 1605.96 666.937 1603.86 668.712C1601.77 670.487 1599.63 673.128 1597.45 676.61C1593.09 683.573 1588.49 693.99 1583.65 707.835L1584.6 708.165C1589.43 694.344 1593.99 684.01 1598.3 677.14C1600.45 673.705 1602.52 671.159 1604.51 669.475C1606.5 667.793 1608.37 667 1610.12 667V666ZM1583.65 707.835C1573.97 735.535 1565.47 769.896 1558.13 810.912L1559.12 811.088C1566.45 770.104 1574.94 735.799 1584.6 708.165L1583.65 707.835ZM1558.13 810.912C1550.8 851.935 1546.79 891.295 1546.13 928.991L1547.12 929.009C1547.79 891.371 1551.79 852.065 1559.12 811.088L1558.13 810.912ZM1547.05 929.259C1570.73 890.234 1589.58 851.203 1603.6 812.169L1602.65 811.831C1588.67 850.797 1569.85 889.766 1546.2 928.741L1547.05 929.259ZM1603.6 812.168C1617.61 772.795 1624.62 736.904 1624.62 704.5H1623.62C1623.62 736.762 1616.64 772.538 1602.65 811.832L1603.6 812.168ZM1624.62 704.5C1624.62 691.817 1623.46 682.245 1621.09 675.827C1619.91 672.615 1618.42 670.16 1616.59 668.504C1614.74 666.839 1612.58 666 1610.12 666V667C1612.33 667 1614.26 667.745 1615.91 669.246C1617.58 670.757 1619.01 673.051 1620.16 676.173C1622.46 682.422 1623.62 691.85 1623.62 704.5H1624.62ZM1910.21 940L1909.77 940.237L1910.21 940ZM1899.21 985L1899.06 984.522L1899.05 984.525L1899.05 984.528L1899.21 985ZM1833.21 997L1833.19 996.5L1832.81 996.516L1832.72 996.89L1833.21 997ZM1795.71 1064.5L1796.04 1064.87L1796.05 1064.87L1795.71 1064.5ZM1680.71 1075L1680.43 1075.41L1680.43 1075.41L1680.71 1075ZM1652.21 917L1652.66 917.221L1652.66 917.218L1652.21 917ZM1692.21 870.5L1692.48 870.92L1692.49 870.916L1692.21 870.5ZM1809.71 880L1809.33 880.328L1809.34 880.335L1809.71 880ZM1837.21 944.5L1836.71 944.552L1836.76 945.03L1837.24 944.999L1837.21 944.5ZM1893.21 934.5L1893.09 934.015L1893.08 934.016L1893.21 934.5ZM1763.71 1023.5L1763.34 1023.16L1763.34 1023.17L1763.71 1023.5ZM1779.71 986L1780.2 986.081L1780.26 985.765L1779.99 985.586L1779.71 986ZM1755.71 958.5L1755.26 958.713L1755.26 958.724L1755.71 958.5ZM1749.21 906.5L1749.7 906.592L1749.81 906H1749.21V906.5ZM1713.21 926L1712.8 925.715L1712.8 925.718L1713.21 926ZM1710.71 1022L1710.31 1022.29L1710.31 1022.3L1710.71 1022ZM1900.21 934C1904.33 934 1907.51 936.039 1909.77 940.237L1910.65 939.763C1908.25 935.294 1904.76 933 1900.21 933V934ZM1909.77 940.237C1912.05 944.476 1913.21 949.888 1913.21 956.5H1914.21C1914.21 949.779 1913.04 944.19 1910.65 939.763L1909.77 940.237ZM1913.21 956.5C1913.21 964.457 1912.01 970.745 1909.64 975.398C1907.28 980.035 1903.76 983.065 1899.06 984.522L1899.36 985.478C1904.33 983.935 1908.06 980.715 1910.53 975.852C1913 971.005 1914.21 964.543 1914.21 956.5H1913.21ZM1899.05 984.528C1879.1 991.51 1857.15 995.502 1833.19 996.5L1833.23 997.5C1857.27 996.498 1879.32 992.49 1899.38 985.472L1899.05 984.528ZM1832.72 996.89C1826.41 1024.8 1813.96 1047.21 1795.37 1064.13L1796.05 1064.87C1814.8 1047.79 1827.35 1025.2 1833.7 997.11L1832.72 996.89ZM1795.38 1064.13C1776.8 1080.72 1755.75 1089 1732.21 1089V1090C1756.01 1090 1777.29 1081.62 1796.04 1064.87L1795.38 1064.13ZM1732.21 1089C1712.29 1089 1695.23 1084.19 1680.99 1074.59L1680.43 1075.41C1694.86 1085.15 1712.13 1090 1732.21 1090V1089ZM1680.99 1074.59C1667.07 1064.97 1656.46 1052.21 1649.17 1036.29L1648.26 1036.71C1655.63 1052.79 1666.35 1065.69 1680.43 1075.41L1680.99 1074.59ZM1649.17 1036.29C1641.86 1020.36 1638.21 1003.1 1638.21 984.5H1637.21C1637.21 1003.23 1640.89 1020.64 1648.26 1036.71L1649.17 1036.29ZM1638.21 984.5C1638.21 959.231 1643.03 936.809 1652.66 917.221L1651.76 916.779C1642.06 936.525 1637.21 959.102 1637.21 984.5H1638.21ZM1652.66 917.218C1662.29 897.292 1675.57 881.865 1692.48 870.92L1691.94 870.08C1674.85 881.135 1661.46 896.708 1651.76 916.782L1652.66 917.218ZM1692.49 870.916C1709.41 859.638 1728.14 854 1748.71 854V853C1727.95 853 1709.02 858.695 1691.93 870.084L1692.49 870.916ZM1748.71 854C1773.91 854 1794.1 862.78 1809.33 880.328L1810.09 879.672C1794.65 861.886 1774.18 853 1748.71 853V854ZM1809.34 880.335C1824.93 897.582 1834.06 918.979 1836.71 944.552L1837.71 944.448C1835.03 918.688 1825.83 897.085 1810.08 879.665L1809.34 880.335ZM1837.24 944.999C1852.95 943.996 1871.65 940.655 1893.34 934.984L1893.08 934.016C1871.44 939.678 1852.8 943.004 1837.18 944.001L1837.24 944.999ZM1893.33 934.985C1895.97 934.325 1898.26 934 1900.21 934V933C1898.16 933 1895.78 933.342 1893.09 934.015L1893.33 934.985ZM1736.21 1037C1747.03 1037 1756.33 1032.59 1764.09 1023.83L1763.34 1023.17C1755.76 1031.74 1746.72 1036 1736.21 1036V1037ZM1764.08 1023.84C1772.17 1015.08 1777.53 1002.47 1780.2 986.081L1779.22 985.919C1776.56 1002.19 1771.26 1014.59 1763.34 1023.16L1764.08 1023.84ZM1779.99 985.586C1769.73 978.635 1761.79 969.534 1756.16 958.276L1755.26 958.724C1760.97 970.132 1769.03 979.365 1779.43 986.414L1779.99 985.586ZM1756.16 958.287C1750.86 947.021 1748.21 935.094 1748.21 922.5H1747.21C1747.21 935.239 1749.89 947.312 1755.26 958.713L1756.16 958.287ZM1748.21 922.5C1748.21 917.198 1748.71 911.896 1749.7 906.592L1748.72 906.408C1747.71 911.771 1747.21 917.135 1747.21 922.5H1748.21ZM1749.21 906H1746.71V907H1749.21V906ZM1746.71 906C1733.18 906 1721.87 912.609 1712.8 925.715L1713.62 926.285C1722.55 913.391 1733.57 907 1746.71 907V906ZM1712.8 925.718C1704.05 938.5 1699.71 956.615 1699.71 980H1700.71C1700.71 956.718 1705.04 938.833 1713.62 926.282L1712.8 925.718ZM1699.71 980C1699.71 998.386 1703.22 1012.51 1710.31 1022.29L1711.12 1021.71C1704.2 1012.16 1700.71 998.281 1700.71 980H1699.71ZM1710.31 1022.3C1717.71 1032.06 1726.35 1037 1736.21 1037V1036C1726.74 1036 1718.37 1031.28 1711.11 1021.7L1710.31 1022.3ZM2136.8 983L2136.36 983.237L2136.37 983.258L2136.38 983.277L2136.8 983ZM2137.3 1016.5L2137.74 1016.74L2137.3 1016.5ZM2126.3 1028L2126.02 1027.58L2126.02 1027.59L2126.3 1028ZM2063.3 1071L2063.58 1071.42L2063.58 1071.41L2063.3 1071ZM2031.3 1092.5L2031.02 1092.08L2030.84 1092.2L2030.81 1092.41L2031.3 1092.5ZM1981.3 1255L1980.85 1254.77L1980.85 1254.77L1981.3 1255ZM1861.8 1298.5L1862.15 1298.15L1862.14 1298.14L1861.8 1298.5ZM1873.8 1181L1873.39 1180.72L1873.38 1180.72L1873.8 1181ZM1978.8 1081L1979.1 1081.4L1979.26 1081.27L1979.29 1081.08L1978.8 1081ZM1981.8 1061.5L1982.29 1061.58L1981.37 1061.23L1981.8 1061.5ZM1959.3 1082.5L1959.53 1082.94L1959.53 1082.94L1959.3 1082.5ZM1882.8 1067L1883.18 1066.68L1882.8 1067ZM1882.8 932.5L1883.24 932.731L1883.24 932.729L1882.8 932.5ZM1931.8 875L1932.08 875.409L1932.09 875.408L1931.8 875ZM2011.8 857.5L2011.4 857.807L2011.42 857.832L2011.44 857.854L2011.8 857.5ZM2018.3 872.5L2017.81 872.611L2017.92 873.091L2018.4 872.989L2018.3 872.5ZM2057.8 874.5L2057.48 874.89L2057.51 874.907L2057.53 874.922L2057.8 874.5ZM2062.8 898.5L2062.3 898.429L2062.3 898.436L2062.8 898.5ZM2050.3 977L2049.8 976.918L2050.3 977ZM2045.8 1003.5L2045.3 1003.42L2045.3 1003.42L2045.3 1003.43L2045.8 1003.5ZM2041.3 1033.5L2040.8 1033.42L2040.61 1034.67L2041.6 1033.89L2041.3 1033.5ZM2115.3 980.5L2115.03 980.074L2115.03 980.08L2115.3 980.5ZM1972.3 1025L1972.7 1025.3L1972.3 1025ZM1987.3 985L1986.81 984.908L1986.8 984.915L1987.3 985ZM2003.3 899.5L2003.79 899.592L2003.9 898.985L2003.28 899L2003.3 899.5ZM1965.3 915.5L1965.62 915.88L1965.63 915.874L1965.3 915.5ZM1937.3 955.5L1937.76 955.694L1937.3 955.5ZM1932.8 1031.5L1932.41 1031.81L1932.41 1031.82L1932.42 1031.83L1932.8 1031.5ZM1936.8 1236L1936.36 1235.76L1936.35 1235.77L1936.8 1236ZM1967.3 1140.5L1967.79 1140.61L1968.11 1139.15L1966.97 1140.12L1967.3 1140.5ZM1911.8 1200L1912.22 1200.27L1911.8 1200ZM1897.8 1260.5L1897.36 1260.74L1897.37 1260.75L1897.38 1260.77L1897.8 1260.5ZM2126.8 977C2130.92 977 2134.1 979.039 2136.36 983.237L2137.24 982.763C2134.83 978.294 2131.34 976 2126.8 976V977ZM2136.38 983.277C2138.98 987.173 2140.3 992.235 2140.3 998.5H2141.3C2141.3 992.099 2139.95 986.827 2137.21 982.723L2136.38 983.277ZM2140.3 998.5C2140.3 1006.13 2139.13 1012.03 2136.86 1016.26L2137.74 1016.74C2140.13 1012.3 2141.3 1006.21 2141.3 998.5H2140.3ZM2136.86 1016.26C2134.57 1020.51 2130.97 1024.29 2126.02 1027.58L2126.57 1028.42C2131.63 1025.05 2135.36 1021.16 2137.74 1016.74L2136.86 1016.26ZM2126.02 1027.59C2097.35 1046.92 2076.35 1061.25 2063.01 1070.59L2063.58 1071.41C2076.91 1062.08 2097.91 1047.75 2126.58 1028.41L2126.02 1027.59ZM2063.02 1070.58L2031.02 1092.08L2031.58 1092.92L2063.58 1071.42L2063.02 1070.58ZM2030.81 1092.41C2018.14 1161.39 2001.49 1215.5 1980.85 1254.77L1981.74 1255.23C2002.44 1215.84 2019.12 1161.61 2031.79 1092.59L2030.81 1092.41ZM1980.85 1254.77C1960.56 1294.35 1934.7 1314 1903.3 1314V1315C1935.22 1315 1961.36 1294.98 1981.74 1255.23L1980.85 1254.77ZM1903.3 1314C1886.41 1314 1872.71 1308.71 1862.15 1298.15L1861.44 1298.85C1872.22 1309.63 1886.18 1315 1903.3 1315V1314ZM1862.14 1298.14C1851.59 1287.92 1846.3 1274.39 1846.3 1257.5H1845.3C1845.3 1274.61 1850.67 1288.42 1861.45 1298.86L1862.14 1298.14ZM1846.3 1257.5C1846.3 1233.97 1855.58 1208.56 1874.21 1181.28L1873.38 1180.72C1854.68 1208.1 1845.3 1233.7 1845.3 1257.5H1846.3ZM1874.21 1181.28C1892.83 1154.35 1927.78 1121.06 1979.1 1081.4L1978.49 1080.6C1927.15 1120.28 1892.1 1153.65 1873.39 1180.72L1874.21 1181.28ZM1979.29 1081.08L1982.29 1061.58L1981.3 1061.42L1978.3 1080.92L1979.29 1081.08ZM1981.37 1061.23C1975.75 1070.16 1968.32 1077.1 1959.06 1082.06L1959.53 1082.94C1968.94 1077.9 1976.51 1070.84 1982.22 1061.77L1981.37 1061.23ZM1959.07 1082.06C1950.13 1086.69 1941.21 1089 1932.3 1089V1090C1941.39 1090 1950.46 1087.64 1959.53 1082.94L1959.07 1082.06ZM1932.3 1089C1911.77 1089 1895.41 1081.56 1883.18 1066.68L1882.41 1067.32C1894.85 1082.44 1911.49 1090 1932.3 1090V1089ZM1883.18 1066.68C1870.94 1051.79 1864.8 1032.25 1864.8 1008H1863.8C1863.8 1032.42 1869.99 1052.21 1882.41 1067.32L1883.18 1066.68ZM1864.8 1008C1864.8 981.414 1870.94 956.326 1883.24 932.731L1882.35 932.269C1869.98 956.007 1863.8 981.253 1863.8 1008H1864.8ZM1883.24 932.729C1895.54 908.794 1911.82 889.692 1932.08 875.409L1931.51 874.591C1911.1 888.975 1894.72 908.206 1882.35 932.271L1883.24 932.729ZM1932.09 875.408C1952.68 860.795 1974.41 853.5 1997.3 853.5V852.5C1974.18 852.5 1952.25 859.872 1931.51 874.592L1932.09 875.408ZM1997.3 853.5C2004.61 853.5 2009.22 855.004 2011.4 857.807L2012.19 857.193C2009.7 853.996 2004.65 852.5 1997.3 852.5V853.5ZM2011.44 857.854C2014 860.414 2016.15 865.294 2017.81 872.611L2018.78 872.389C2017.11 865.039 2014.92 859.919 2012.15 857.146L2011.44 857.854ZM2018.4 872.989C2024.69 871.665 2031.99 871 2040.3 871V870C2031.94 870 2024.57 870.669 2018.19 872.011L2018.4 872.989ZM2040.3 871C2048.61 871 2054.29 872.336 2057.48 874.89L2058.11 874.11C2054.64 871.33 2048.65 870 2040.3 870V871ZM2057.53 874.922C2060.97 877.114 2062.8 881.718 2062.8 889H2063.8C2063.8 881.615 2061.95 876.553 2058.07 874.078L2057.53 874.922ZM2062.8 889C2062.8 892.99 2062.63 896.13 2062.3 898.429L2063.29 898.571C2063.63 896.203 2063.8 893.01 2063.8 889H2062.8ZM2062.3 898.436C2060.97 908.758 2056.8 934.914 2049.8 976.918L2050.79 977.082C2057.79 935.086 2061.96 908.909 2063.29 898.564L2062.3 898.436ZM2049.8 976.918C2048.47 984.917 2046.97 993.749 2045.3 1003.42L2046.29 1003.58C2047.96 993.918 2049.46 985.083 2050.79 977.082L2049.8 976.918ZM2045.3 1003.43C2043.97 1012.76 2042.47 1022.76 2040.8 1033.42L2041.79 1033.58C2043.46 1022.91 2044.96 1012.91 2046.29 1003.57L2045.3 1003.43ZM2041.6 1033.89C2067.26 1013.9 2091.92 996.244 2115.57 980.92L2115.03 980.08C2091.34 995.423 2066.67 1013.1 2040.99 1033.11L2041.6 1033.89ZM2115.56 980.926C2119.85 978.284 2123.59 977 2126.8 977V976C2123.33 976 2119.41 977.383 2115.03 980.074L2115.56 980.926ZM1950.3 1039.5C1958.19 1039.5 1965.65 1034.69 1972.7 1025.3L1971.9 1024.7C1964.94 1033.98 1957.74 1038.5 1950.3 1038.5V1039.5ZM1972.7 1025.3C1979.76 1015.88 1984.78 1002.46 1987.79 985.085L1986.8 984.915C1983.81 1002.21 1978.83 1015.45 1971.9 1024.7L1972.7 1025.3ZM1987.79 985.092L2003.79 899.592L2002.81 899.408L1986.81 984.908L1987.79 985.092ZM2003.28 899C1989.48 899.337 1976.71 904.726 1964.97 915.126L1965.63 915.874C1977.22 905.608 1989.78 900.33 2003.31 900L2003.28 899ZM1964.97 915.12C1953.24 925.179 1943.86 938.581 1936.84 955.306L1937.76 955.694C1944.73 939.086 1954.02 925.821 1965.62 915.88L1964.97 915.12ZM1936.84 955.306C1929.81 972.036 1926.3 989.769 1926.3 1008.5H1927.3C1927.3 989.898 1930.78 972.297 1937.76 955.694L1936.84 955.306ZM1926.3 1008.5C1926.3 1018.88 1928.3 1026.68 1932.41 1031.81L1933.19 1031.19C1929.29 1026.32 1927.3 1018.78 1927.3 1008.5H1926.3ZM1932.42 1031.83C1936.86 1036.95 1942.84 1039.5 1950.3 1039.5V1038.5C1943.09 1038.5 1937.4 1036.05 1933.17 1031.17L1932.42 1031.83ZM1908.8 1266.5C1913.17 1266.5 1917.71 1263.88 1922.41 1258.84C1927.12 1253.79 1932.07 1246.25 1937.24 1236.23L1936.35 1235.77C1931.2 1245.75 1926.3 1253.21 1921.68 1258.16C1917.05 1263.12 1912.76 1265.5 1908.8 1265.5V1266.5ZM1937.24 1236.24C1947.94 1216.17 1958.12 1184.28 1967.79 1140.61L1966.81 1140.39C1957.14 1184.05 1946.99 1215.83 1936.36 1235.76L1937.24 1236.24ZM1966.97 1140.12C1941.29 1162.14 1922.75 1182.01 1911.38 1199.73L1912.22 1200.27C1923.51 1182.66 1941.97 1162.86 1967.62 1140.88L1966.97 1140.12ZM1911.38 1199.73C1900.02 1217.43 1894.3 1233.03 1894.3 1246.5H1895.3C1895.3 1233.3 1900.91 1217.9 1912.22 1200.27L1911.38 1199.73ZM1894.3 1246.5C1894.3 1252.22 1895.31 1256.98 1897.36 1260.74L1898.24 1260.26C1896.29 1256.69 1895.3 1252.11 1895.3 1246.5H1894.3ZM1897.38 1260.77C1899.82 1264.6 1903.66 1266.5 1908.8 1266.5V1265.5C1903.94 1265.5 1900.45 1263.73 1898.22 1260.23L1897.38 1260.77ZM2138.68 811.5L2138.34 811.862L2138.35 811.871L2138.68 811.5ZM2141.68 755L2142.01 755.381L2142.01 755.38L2141.68 755ZM2206.18 752L2205.88 752.394L2206.18 752ZM2204.68 809.5L2205.02 809.875L2205.02 809.867L2204.68 809.5ZM2118.68 1066.5L2118.26 1066.77L2118.26 1066.77L2118.68 1066.5ZM2109.68 948L2109.19 947.917L2109.19 947.922L2109.68 948ZM2124.68 882L2125.16 882.142L2125.16 882.135L2124.68 882ZM2176.68 929L2177.17 929.107L2177.17 929.102L2176.68 929ZM2204.68 1022L2204.34 1021.63L2204.68 1022ZM2240.68 982.5L2240.3 982.175L2240.3 982.18L2240.68 982.5ZM2264.18 981.5L2263.75 981.752L2263.76 981.765L2263.77 981.777L2264.18 981.5ZM2258.68 1029L2258.31 1028.67L2258.3 1028.68L2258.68 1029ZM2170.18 820.5C2156.25 820.5 2145.89 817.347 2139.02 811.129L2138.35 811.871C2145.48 818.32 2156.12 821.5 2170.18 821.5V820.5ZM2139.03 811.138C2132.15 804.585 2128.68 795.56 2128.68 784H2127.68C2127.68 795.773 2131.22 805.082 2138.34 811.862L2139.03 811.138ZM2128.68 784C2128.68 772.482 2133.12 762.954 2142.01 755.381L2141.36 754.619C2132.25 762.38 2127.68 772.185 2127.68 784H2128.68ZM2142.01 755.38C2151.24 747.466 2162.62 743.5 2176.18 743.5V742.5C2162.41 742.5 2150.79 746.534 2141.36 754.62L2142.01 755.38ZM2176.18 743.5C2188.44 743.5 2198.32 746.479 2205.88 752.394L2206.49 751.606C2198.72 745.521 2188.6 742.5 2176.18 742.5V743.5ZM2205.88 752.394C2213.4 758.286 2217.18 766.631 2217.18 777.5H2218.18C2218.18 766.369 2214.3 757.714 2206.49 751.606L2205.88 752.394ZM2217.18 777.5C2217.18 790.714 2212.89 801.24 2204.34 809.133L2205.02 809.867C2213.81 801.76 2218.18 790.953 2218.18 777.5H2217.18ZM2204.35 809.125C2195.8 816.693 2184.43 820.5 2170.18 820.5V821.5C2184.61 821.5 2196.24 817.64 2205.01 809.874L2204.35 809.125ZM2166.18 1089C2144.65 1089 2128.99 1081.39 2119.1 1066.23L2118.26 1066.77C2128.38 1082.28 2144.38 1090 2166.18 1090V1089ZM2119.11 1066.23C2109.51 1051.01 2104.68 1030.77 2104.68 1005.5H2103.68C2103.68 1030.89 2108.53 1051.33 2118.26 1066.77L2119.11 1066.23ZM2104.68 1005.5C2104.68 990.536 2106.51 971.398 2110.18 948.078L2109.19 947.922C2105.52 971.269 2103.68 990.464 2103.68 1005.5H2104.68ZM2110.18 948.083C2114.17 924.434 2119.17 902.453 2125.16 882.142L2124.2 881.858C2118.2 902.213 2113.19 924.233 2109.19 947.917L2110.18 948.083ZM2125.16 882.135C2128.16 871.504 2132.12 864.293 2137 860.39L2136.37 859.61C2131.25 863.707 2127.21 871.163 2124.2 881.865L2125.16 882.135ZM2137 860.39C2141.86 856.497 2149.72 854.5 2160.68 854.5V853.5C2149.64 853.5 2141.5 855.503 2136.37 859.61L2137 860.39ZM2160.68 854.5C2169.14 854.5 2175.4 855.913 2179.53 858.666C2183.63 861.395 2185.68 865.479 2185.68 871H2186.68C2186.68 865.188 2184.49 860.771 2180.09 857.834C2175.72 854.92 2169.22 853.5 2160.68 853.5V854.5ZM2185.68 871C2185.68 879.271 2182.53 898.548 2176.19 928.898L2177.17 929.102C2183.5 898.785 2186.68 879.396 2186.68 871H2185.68ZM2176.2 928.893C2168.2 965.553 2164.18 990.438 2164.18 1003.5H2165.18C2165.18 990.562 2169.17 965.781 2177.17 929.107L2176.2 928.893ZM2164.18 1003.5C2164.18 1013.53 2165.52 1021.29 2168.24 1026.72L2169.13 1026.28C2166.51 1021.04 2165.18 1013.47 2165.18 1003.5H2164.18ZM2168.24 1026.72C2169.61 1029.46 2171.46 1031.54 2173.8 1032.93C2176.15 1034.32 2178.95 1035 2182.18 1035V1034C2179.09 1034 2176.47 1033.35 2174.31 1032.07C2172.16 1030.79 2170.43 1028.87 2169.13 1026.28L2168.24 1026.72ZM2182.18 1035C2188.39 1035 2196.01 1030.71 2205.02 1022.37L2204.34 1021.63C2195.35 1029.96 2187.98 1034 2182.18 1034V1035ZM2205.02 1022.37C2214.05 1014.01 2226.06 1000.82 2241.07 982.82L2240.3 982.18C2225.3 1000.18 2213.32 1013.32 2204.34 1021.63L2205.02 1022.37ZM2241.06 982.825C2244.99 978.242 2249.36 976 2254.18 976V975C2249 975 2244.38 977.425 2240.3 982.175L2241.06 982.825ZM2254.18 976C2258.32 976 2261.5 977.893 2263.75 981.752L2264.62 981.248C2262.2 977.107 2258.71 975 2254.18 975V976ZM2263.77 981.777C2266.36 985.666 2267.68 991.056 2267.68 998H2268.68C2268.68 990.944 2267.34 985.334 2264.6 981.223L2263.77 981.777ZM2267.68 998C2267.68 1011.26 2264.53 1021.46 2258.31 1028.67L2259.06 1029.33C2265.5 1021.87 2268.68 1011.41 2268.68 998H2267.68ZM2258.3 1028.68C2225.32 1068.99 2194.61 1089 2166.18 1089V1090C2195.09 1090 2226.05 1069.68 2259.07 1029.32L2258.3 1028.68ZM2440.23 1035L2440.33 1034.51L2440.23 1035ZM2449.23 1080L2449.56 1080.38L2449.56 1080.38L2449.23 1080ZM2358.23 1067.5L2357.88 1067.85L2357.88 1067.86L2358.23 1067.5ZM2355.73 981L2355.93 981.46L2355.93 981.459L2355.73 981ZM2387.23 961L2387.6 961.336L2387.61 961.327L2387.23 961ZM2392.73 921L2392.34 921.307L2392.35 921.32L2392.36 921.332L2392.73 921ZM2353.73 936L2353.35 935.677L2353.34 935.683L2353.73 936ZM2323.73 986.5L2324.18 986.709L2324.19 986.706L2323.73 986.5ZM2301.73 1049.5L2301.24 1049.38L2301.24 1049.39L2301.73 1049.5ZM2288.73 1081.5L2288.36 1081.17L2288.35 1081.17L2288.73 1081.5ZM2243.23 1078.5L2242.8 1078.76L2242.81 1078.77L2242.82 1078.78L2243.23 1078.5ZM2233.73 1043.5L2233.23 1043.55L2233.73 1043.5ZM2246.73 814L2246.24 813.906L2246.24 813.909L2246.73 814ZM2293.23 674L2292.79 673.761L2292.79 673.762L2293.23 674ZM2404.23 637L2403.82 637.287L2403.82 637.293L2403.83 637.298L2404.23 637ZM2389.23 793L2389.67 793.24L2389.67 793.238L2389.23 793ZM2293.23 919.5L2292.86 919.162L2292.74 919.293L2292.73 919.471L2293.23 919.5ZM2291.73 973H2291.23L2292.2 973.179L2291.73 973ZM2346.73 882.5L2347.07 882.871L2347.07 882.868L2346.73 882.5ZM2444.73 871L2444.36 871.331L2444.36 871.337L2444.73 871ZM2446.23 963.5L2446.66 963.76L2446.23 963.5ZM2398.23 1004.5L2398 1004.06L2397.67 1004.23L2397.74 1004.6L2398.23 1004.5ZM2410.23 1025.5L2409.95 1025.92L2409.97 1025.92L2409.98 1025.93L2410.23 1025.5ZM2336.73 692.5L2337.19 692.698L2337.19 692.695L2336.73 692.5ZM2315.23 762L2314.74 761.884L2314.74 761.888L2315.23 762ZM2298.73 857L2298.23 856.937L2298.02 858.604L2299.11 857.324L2298.73 857ZM2349.73 777.5L2349.28 777.285L2349.28 777.289L2349.73 777.5ZM2366.73 675L2367.19 674.81L2366.73 675ZM2440.13 1035.49C2446.9 1036.81 2451.91 1039.32 2455.24 1042.96C2458.55 1046.6 2460.23 1051.43 2460.23 1057.5H2461.23C2461.23 1051.24 2459.49 1046.15 2455.98 1042.29C2452.46 1038.43 2447.23 1035.86 2440.33 1034.51L2440.13 1035.49ZM2460.23 1057.5C2460.23 1065.66 2456.49 1073.03 2448.9 1079.62L2449.56 1080.38C2457.31 1073.64 2461.23 1066.01 2461.23 1057.5H2460.23ZM2448.9 1079.62C2441.69 1085.85 2431.16 1089 2417.23 1089V1090C2431.3 1090 2442.1 1086.82 2449.56 1080.38L2448.9 1079.62ZM2417.23 1089C2393.34 1089 2373.8 1081.7 2358.58 1067.14L2357.88 1067.86C2373.32 1082.63 2393.12 1090 2417.23 1090V1089ZM2358.58 1067.15C2343.69 1052.25 2336.23 1032.89 2336.23 1009H2335.23C2335.23 1033.11 2342.77 1052.75 2357.88 1067.85L2358.58 1067.15ZM2336.23 1009C2336.23 1002.59 2337.87 997.111 2341.14 992.541C2344.4 987.966 2349.32 984.267 2355.93 981.46L2355.53 980.54C2348.81 983.4 2343.72 987.2 2340.32 991.959C2336.92 996.722 2335.23 1002.41 2335.23 1009H2336.23ZM2355.93 981.459C2370.62 975.114 2381.2 968.413 2387.6 961.335L2386.86 960.665C2380.6 967.587 2370.17 974.219 2355.53 980.541L2355.93 981.459ZM2387.61 961.327C2394.03 953.896 2397.23 944.945 2397.23 934.5H2396.23C2396.23 944.722 2393.1 953.437 2386.85 960.673L2387.61 961.327ZM2397.23 934.5C2397.23 928.436 2395.88 923.795 2393.1 920.668L2392.36 921.332C2394.91 924.205 2396.23 928.564 2396.23 934.5H2397.23ZM2393.13 920.693C2390.7 917.576 2387.56 916 2383.73 916V917C2387.24 917 2390.09 918.424 2392.34 921.307L2393.13 920.693ZM2383.73 916C2374.5 916 2364.37 922.656 2353.35 935.677L2354.11 936.323C2365.09 923.344 2374.97 917 2383.73 917V916ZM2353.34 935.683C2342.64 948.726 2332.62 965.6 2323.27 986.294L2324.19 986.706C2333.51 966.066 2343.49 949.274 2354.12 936.317L2353.34 935.683ZM2323.28 986.291C2313.93 1006.65 2306.59 1027.68 2301.24 1049.38L2302.22 1049.62C2307.54 1027.98 2314.86 1007.01 2324.18 986.709L2323.28 986.291ZM2301.24 1049.39C2297.58 1065.04 2293.27 1075.6 2288.36 1081.17L2289.11 1081.83C2294.19 1076.06 2298.55 1065.29 2302.22 1049.61L2301.24 1049.39ZM2288.35 1081.17C2283.82 1086.35 2276.49 1089 2266.23 1089V1090C2276.64 1090 2284.31 1087.31 2289.11 1081.83L2288.35 1081.17ZM2266.23 1089C2256.03 1089 2248.53 1085.39 2243.64 1078.22L2242.82 1078.78C2247.93 1086.28 2255.76 1090 2266.23 1090V1089ZM2243.66 1078.24C2239.05 1070.67 2235.89 1059.09 2234.23 1043.45L2233.23 1043.55C2234.9 1059.25 2238.08 1071 2242.8 1078.76L2243.66 1078.24ZM2234.23 1043.45C2232.56 1027.81 2231.73 1004.83 2231.73 974.5H2230.73C2230.73 1004.84 2231.56 1027.86 2233.23 1043.55L2234.23 1043.45ZM2231.73 974.5C2231.73 923.2 2236.89 869.731 2247.22 814.091L2246.24 813.909C2235.9 869.602 2230.73 923.133 2230.73 974.5H2231.73ZM2247.22 814.094C2257.88 758.462 2273.37 711.847 2293.67 674.238L2292.79 673.762C2272.43 711.486 2256.91 758.204 2246.24 813.906L2247.22 814.094ZM2293.67 674.239C2314.3 636.31 2338.83 617.5 2367.23 617.5V616.5C2338.3 616.5 2313.5 635.69 2292.79 673.761L2293.67 674.239ZM2367.23 617.5C2382.39 617.5 2394.57 624.077 2403.82 637.287L2404.64 636.713C2395.22 623.256 2382.74 616.5 2367.23 616.5V617.5ZM2403.83 637.298C2413.42 650.19 2418.23 667.076 2418.23 688H2419.23C2419.23 666.924 2414.38 649.81 2404.63 636.702L2403.83 637.298ZM2418.23 688C2418.23 721.567 2408.43 756.485 2388.79 792.762L2389.67 793.238C2409.37 756.848 2419.23 721.767 2419.23 688H2418.23ZM2388.79 792.76C2369.15 828.71 2337.18 870.843 2292.86 919.162L2293.6 919.838C2337.95 871.49 2369.98 829.29 2389.67 793.24L2388.79 792.76ZM2292.73 919.471C2291.73 936.815 2291.23 954.658 2291.23 973H2292.23C2292.23 954.676 2292.73 936.852 2293.73 919.529L2292.73 919.471ZM2292.2 973.179C2308.18 931.546 2326.48 901.463 2347.07 882.871L2346.4 882.129C2325.65 900.871 2307.28 931.12 2291.26 972.821L2292.2 973.179ZM2347.07 882.868C2367.69 863.907 2386.91 854.5 2404.73 854.5V853.5C2386.55 853.5 2367.1 863.093 2346.39 882.132L2347.07 882.868ZM2404.73 854.5C2421.27 854.5 2434.46 860.117 2444.36 871.331L2445.11 870.669C2435 859.216 2421.52 853.5 2404.73 853.5V854.5ZM2444.36 871.337C2454.6 882.57 2459.73 896.446 2459.73 913H2460.73C2460.73 896.22 2455.52 882.097 2445.1 870.663L2444.36 871.337ZM2459.73 913C2459.73 931.244 2455.09 947.987 2445.8 963.24L2446.66 963.76C2456.04 948.347 2460.73 931.423 2460.73 913H2459.73ZM2445.8 963.24C2436.53 978.47 2420.62 992.083 2398 1004.06L2398.46 1004.94C2421.18 992.917 2437.26 979.196 2446.66 963.76L2445.8 963.24ZM2397.74 1004.6C2399.76 1014.67 2403.8 1021.82 2409.95 1025.92L2410.51 1025.08C2404.66 1021.18 2400.71 1014.33 2398.72 1004.4L2397.74 1004.6ZM2409.98 1025.93C2416.39 1029.64 2426.45 1032.82 2440.13 1035.49L2440.33 1034.51C2426.67 1031.85 2416.74 1028.69 2410.48 1025.07L2409.98 1025.93ZM2356.73 666C2353.48 666 2350.19 668.335 2346.83 672.695C2343.46 677.078 2339.94 683.623 2336.27 692.305L2337.19 692.695C2340.85 684.044 2344.33 677.589 2347.63 673.305C2350.94 668.999 2353.98 667 2356.73 667V666ZM2336.27 692.302C2328.92 709.34 2321.75 732.538 2314.74 761.884L2315.72 762.116C2322.71 732.796 2329.87 709.66 2337.19 692.698L2336.27 692.302ZM2314.74 761.888C2308.07 790.907 2302.57 822.59 2298.23 856.937L2299.23 857.063C2303.56 822.743 2309.06 791.093 2315.72 762.112L2314.74 761.888ZM2299.11 857.324C2319.81 832.956 2336.83 806.419 2350.18 777.711L2349.28 777.289C2335.96 805.915 2318.99 832.377 2298.35 856.676L2299.11 857.324ZM2350.18 777.715C2363.87 749.004 2370.73 722.93 2370.73 699.5H2369.73C2369.73 722.737 2362.92 748.662 2349.28 777.285L2350.18 777.715ZM2370.73 699.5C2370.73 688.809 2369.56 680.566 2367.19 674.81L2366.27 675.19C2368.56 680.768 2369.73 688.857 2369.73 699.5H2370.73ZM2367.19 674.81C2364.82 669.048 2361.35 666 2356.73 666V667C2360.78 667 2363.97 669.619 2366.27 675.19L2367.19 674.81Z" fill="black"/>
</g>
<defs>
<filter id="filter0_bd_4_14" x="0.973877" y="-3.99994" width="687.622" height="1185.03" filterUnits="userSpaceOnUse" color-interpolation-filters="sRGB">
<feFlood flood-opacity="0" result="BackgroundImageFix"/>
<feGaussianBlur in="BackgroundImageFix" stdDeviation="2"/>
<feComposite in2="SourceAlpha" operator="in" result="effect1_backgroundBlur_4_14"/>
<feColorMatrix in="SourceAlpha" type="matrix" values="0 0 0 0 0 0 0 0 0 0 0 0 0 0 0 0 0 0 127 0" result="hardAlpha"/>
<feOffset dy="4"/>
<feGaussianBlur stdDeviation="2"/>
<feComposite in2="hardAlpha" operator="out"/>
<feColorMatrix type="matrix" values="0 0 0 0 0 0 0 0 0 0 0 0 0 0 0 0 0 0 0.25 0"/>
<feBlend mode="normal" in2="effect1_backgroundBlur_4_14" result="effect2_dropShadow_4_14"/>
<feBlend mode="normal" in="SourceGraphic" in2="effect2_dropShadow_4_14" result="shape"/>
</filter>
<filter id="filter1_d_4_14" x="0.973877" y="1033" width="550.911" height="148.034" filterUnits="userSpaceOnUse" color-interpolation-filters="sRGB">
<feFlood flood-opacity="0" result="BackgroundImageFix"/>
<feColorMatrix in="SourceAlpha" type="matrix" values="0 0 0 0 0 0 0 0 0 0 0 0 0 0 0 0 0 0 127 0" result="hardAlpha"/>
<feOffset dy="4"/>
<feGaussianBlur stdDeviation="2"/>
<feComposite in2="hardAlpha" operator="out"/>
<feColorMatrix type="matrix" values="0 0 0 0 0 0 0 0 0 0 0 0 0 0 0 0 0 0 0.25 0"/>
<feBlend mode="normal" in2="BackgroundImageFix" result="effect1_dropShadow_4_14"/>
<feBlend mode="normal" in="SourceGraphic" in2="effect1_dropShadow_4_14" result="shape"/>
</filter>
<filter id="filter2_d_4_14" x="121.604" y="0.994324" width="566.986" height="756.993" filterUnits="userSpaceOnUse" color-interpolation-filters="sRGB">
<feFlood flood-opacity="0" result="BackgroundImageFix"/>
<feColorMatrix in="SourceAlpha" type="matrix" values="0 0 0 0 0 0 0 0 0 0 0 0 0 0 0 0 0 0 127 0" result="hardAlpha"/>
<feOffset dy="3.99395"/>
<feGaussianBlur stdDeviation="1.99697"/>
<feComposite in2="hardAlpha" operator="out"/>
<feColorMatrix type="matrix" values="0 0 0 0 0 0 0 0 0 0 0 0 0 0 0 0 0 0 0.25 0"/>
<feBlend mode="normal" in2="BackgroundImageFix" result="effect1_dropShadow_4_14"/>
<feBlend mode="normal" in="SourceGraphic" in2="effect1_dropShadow_4_14" result="shape"/>
</filter>
<filter id="filter3_dd_4_14" x="408" y="617" width="2056.73" height="705.5" filterUnits="userSpaceOnUse" color-interpolation-filters="sRGB">
<feFlood flood-opacity="0" result="BackgroundImageFix"/>
<feColorMatrix in="SourceAlpha" type="matrix" values="0 0 0 0 0 0 0 0 0 0 0 0 0 0 0 0 0 0 127 0" result="hardAlpha"/>
<feOffset dy="4"/>
<feGaussianBlur stdDeviation="2"/>
<feComposite in2="hardAlpha" operator="out"/>
<feColorMatrix type="matrix" values="0 0 0 0 0 0 0 0 0 0 0 0 0 0 0 0 0 0 0.25 0"/>
<feBlend mode="normal" in2="BackgroundImageFix" result="effect1_dropShadow_4_14"/>
<feColorMatrix in="SourceAlpha" type="matrix" values="0 0 0 0 0 0 0 0 0 0 0 0 0 0 0 0 0 0 127 0" result="hardAlpha"/>
<feOffset dy="4"/>
<feGaussianBlur stdDeviation="2"/>
<feComposite in2="hardAlpha" operator="out"/>
<feColorMatrix type="matrix" values="0 0 0 0 0 0 0 0 0 0 0 0 0 0 0 0 0 0 0.25 0"/>
<feBlend mode="normal" in2="effect1_dropShadow_4_14" result="effect2_dropShadow_4_14"/>
<feBlend mode="normal" in="SourceGraphic" in2="effect2_dropShadow_4_14" result="shape"/>
</filter>
</defs>
</svg>
